<mxfile host="app.diagrams.net" agent="Mozilla/5.0 (X11; Linux x86_64) AppleWebKit/537.36 (KHTML, like Gecko) Chrome/130.0.0.0 Safari/537.36" version="24.8.3">
  <diagram name="Page-1" id="YpKSIcgt4raoAJl-A2hk">
    <mxGraphModel dx="2203" dy="908" grid="1" gridSize="10" guides="1" tooltips="1" connect="1" arrows="1" fold="1" page="1" pageScale="1" pageWidth="827" pageHeight="1169" math="0" shadow="0">
      <root>
        <mxCell id="0" />
        <mxCell id="1" parent="0" />
        <mxCell id="cOpkqLJVpFi0IKKhEmXB-14" value="" style="rounded=0;orthogonalLoop=1;jettySize=auto;html=1;" parent="1" source="GJdVX7ViqiDl456XCQRg-1" target="cOpkqLJVpFi0IKKhEmXB-7" edge="1">
          <mxGeometry relative="1" as="geometry" />
        </mxCell>
        <mxCell id="cOpkqLJVpFi0IKKhEmXB-23" style="rounded=0;orthogonalLoop=1;jettySize=auto;html=1;exitX=1;exitY=1;exitDx=0;exitDy=0;entryX=0;entryY=0.25;entryDx=0;entryDy=0;" parent="1" source="GJdVX7ViqiDl456XCQRg-1" target="cOpkqLJVpFi0IKKhEmXB-10" edge="1">
          <mxGeometry relative="1" as="geometry" />
        </mxCell>
        <mxCell id="GJdVX7ViqiDl456XCQRg-1" value="GEOS" style="rounded=1;whiteSpace=wrap;html=1;" parent="1" vertex="1">
          <mxGeometry x="230" y="690" width="120" height="60" as="geometry" />
        </mxCell>
        <mxCell id="QDiaEL_Vq7gMq8w6c5RD-7" style="rounded=0;orthogonalLoop=1;jettySize=auto;html=1;" parent="1" source="GJdVX7ViqiDl456XCQRg-2" target="GJdVX7ViqiDl456XCQRg-6" edge="1">
          <mxGeometry relative="1" as="geometry" />
        </mxCell>
        <mxCell id="QDiaEL_Vq7gMq8w6c5RD-8" style="rounded=0;orthogonalLoop=1;jettySize=auto;html=1;" parent="1" source="GJdVX7ViqiDl456XCQRg-2" target="GJdVX7ViqiDl456XCQRg-7" edge="1">
          <mxGeometry relative="1" as="geometry" />
        </mxCell>
        <mxCell id="cOpkqLJVpFi0IKKhEmXB-17" style="rounded=0;orthogonalLoop=1;jettySize=auto;html=1;exitX=0.25;exitY=1;exitDx=0;exitDy=0;entryX=0.75;entryY=0;entryDx=0;entryDy=0;" parent="1" source="GJdVX7ViqiDl456XCQRg-2" target="cOpkqLJVpFi0IKKhEmXB-7" edge="1">
          <mxGeometry relative="1" as="geometry" />
        </mxCell>
        <mxCell id="cOpkqLJVpFi0IKKhEmXB-22" style="rounded=0;orthogonalLoop=1;jettySize=auto;html=1;exitX=0.75;exitY=1;exitDx=0;exitDy=0;entryX=0;entryY=0;entryDx=0;entryDy=0;" parent="1" source="GJdVX7ViqiDl456XCQRg-2" target="cOpkqLJVpFi0IKKhEmXB-10" edge="1">
          <mxGeometry relative="1" as="geometry" />
        </mxCell>
        <mxCell id="GJdVX7ViqiDl456XCQRg-2" value="GDAL" style="rounded=1;whiteSpace=wrap;html=1;" parent="1" vertex="1">
          <mxGeometry x="380" y="690" width="120" height="60" as="geometry" />
        </mxCell>
        <mxCell id="QDiaEL_Vq7gMq8w6c5RD-20" value="" style="rounded=0;orthogonalLoop=1;jettySize=auto;html=1;" parent="1" source="GJdVX7ViqiDl456XCQRg-3" target="QDiaEL_Vq7gMq8w6c5RD-19" edge="1">
          <mxGeometry relative="1" as="geometry" />
        </mxCell>
        <mxCell id="QDiaEL_Vq7gMq8w6c5RD-28" style="rounded=0;orthogonalLoop=1;jettySize=auto;html=1;" parent="1" source="GJdVX7ViqiDl456XCQRg-3" target="GJdVX7ViqiDl456XCQRg-7" edge="1">
          <mxGeometry relative="1" as="geometry" />
        </mxCell>
        <mxCell id="cOpkqLJVpFi0IKKhEmXB-20" value="" style="rounded=0;orthogonalLoop=1;jettySize=auto;html=1;" parent="1" source="GJdVX7ViqiDl456XCQRg-3" target="cOpkqLJVpFi0IKKhEmXB-10" edge="1">
          <mxGeometry relative="1" as="geometry" />
        </mxCell>
        <mxCell id="GJdVX7ViqiDl456XCQRg-3" value="PROJ" style="rounded=1;whiteSpace=wrap;html=1;" parent="1" vertex="1">
          <mxGeometry x="540" y="690" width="120" height="60" as="geometry" />
        </mxCell>
        <mxCell id="QDiaEL_Vq7gMq8w6c5RD-2" style="rounded=0;orthogonalLoop=1;jettySize=auto;html=1;" parent="1" source="GJdVX7ViqiDl456XCQRg-4" target="GJdVX7ViqiDl456XCQRg-8" edge="1">
          <mxGeometry relative="1" as="geometry" />
        </mxCell>
        <mxCell id="QDiaEL_Vq7gMq8w6c5RD-11" style="rounded=0;orthogonalLoop=1;jettySize=auto;html=1;" parent="1" source="GJdVX7ViqiDl456XCQRg-4" target="GJdVX7ViqiDl456XCQRg-11" edge="1">
          <mxGeometry relative="1" as="geometry" />
        </mxCell>
        <mxCell id="GJdVX7ViqiDl456XCQRg-4" value="Shapely" style="rounded=1;whiteSpace=wrap;html=1;fillColor=#dae8fc;strokeColor=#6c8ebf;" parent="1" vertex="1">
          <mxGeometry x="100" y="580" width="120" height="60" as="geometry" />
        </mxCell>
        <mxCell id="QDiaEL_Vq7gMq8w6c5RD-3" style="rounded=0;orthogonalLoop=1;jettySize=auto;html=1;" parent="1" source="GJdVX7ViqiDl456XCQRg-5" target="GJdVX7ViqiDl456XCQRg-8" edge="1">
          <mxGeometry relative="1" as="geometry" />
        </mxCell>
        <mxCell id="GJdVX7ViqiDl456XCQRg-5" value="Pyogrio" style="rounded=1;whiteSpace=wrap;html=1;fillColor=#dae8fc;strokeColor=#6c8ebf;" parent="1" vertex="1">
          <mxGeometry x="244" y="580" width="120" height="60" as="geometry" />
        </mxCell>
        <mxCell id="GJdVX7ViqiDl456XCQRg-6" value="Fiona" style="rounded=1;whiteSpace=wrap;html=1;fillColor=#dae8fc;strokeColor=#6c8ebf;" parent="1" vertex="1">
          <mxGeometry x="380" y="580" width="120" height="60" as="geometry" />
        </mxCell>
        <mxCell id="QDiaEL_Vq7gMq8w6c5RD-9" style="rounded=0;orthogonalLoop=1;jettySize=auto;html=1;entryX=1;entryY=0.75;entryDx=0;entryDy=0;" parent="1" source="GJdVX7ViqiDl456XCQRg-7" target="GJdVX7ViqiDl456XCQRg-12" edge="1">
          <mxGeometry relative="1" as="geometry" />
        </mxCell>
        <mxCell id="GJdVX7ViqiDl456XCQRg-7" value="Rasterio" style="rounded=1;whiteSpace=wrap;html=1;fillColor=#dae8fc;strokeColor=#6c8ebf;" parent="1" vertex="1">
          <mxGeometry x="670" y="580" width="120" height="60" as="geometry" />
        </mxCell>
        <mxCell id="GJdVX7ViqiDl456XCQRg-8" value="GeoPandas" style="rounded=1;whiteSpace=wrap;html=1;fillColor=#dae8fc;strokeColor=#6c8ebf;" parent="1" vertex="1">
          <mxGeometry x="130" y="380" width="120" height="60" as="geometry" />
        </mxCell>
        <mxCell id="QDiaEL_Vq7gMq8w6c5RD-1" style="rounded=0;orthogonalLoop=1;jettySize=auto;html=1;exitX=0;exitY=0.5;exitDx=0;exitDy=0;" parent="1" source="GJdVX7ViqiDl456XCQRg-11" target="GJdVX7ViqiDl456XCQRg-8" edge="1">
          <mxGeometry relative="1" as="geometry" />
        </mxCell>
        <mxCell id="QDiaEL_Vq7gMq8w6c5RD-26" style="rounded=0;orthogonalLoop=1;jettySize=auto;html=1;" parent="1" source="GJdVX7ViqiDl456XCQRg-9" target="GJdVX7ViqiDl456XCQRg-10" edge="1">
          <mxGeometry relative="1" as="geometry" />
        </mxCell>
        <mxCell id="GJdVX7ViqiDl456XCQRg-9" value="Pandas" style="rounded=1;whiteSpace=wrap;html=1;fillColor=#dae8fc;strokeColor=#6c8ebf;" parent="1" vertex="1">
          <mxGeometry x="320" y="240" width="120" height="60" as="geometry" />
        </mxCell>
        <mxCell id="GJdVX7ViqiDl456XCQRg-10" value="Xarray" style="rounded=1;whiteSpace=wrap;html=1;fillColor=#dae8fc;strokeColor=#6c8ebf;" parent="1" vertex="1">
          <mxGeometry x="550" y="380" width="120" height="60" as="geometry" />
        </mxCell>
        <mxCell id="QDiaEL_Vq7gMq8w6c5RD-12" style="rounded=0;orthogonalLoop=1;jettySize=auto;html=1;dashed=1;dashPattern=8 8;fillColor=#ffe6cc;strokeColor=#d79b00;" parent="1" source="GJdVX7ViqiDl456XCQRg-11" target="GJdVX7ViqiDl456XCQRg-10" edge="1">
          <mxGeometry relative="1" as="geometry" />
        </mxCell>
        <mxCell id="GJdVX7ViqiDl456XCQRg-11" value="Xvec" style="rounded=1;whiteSpace=wrap;html=1;fillColor=#dae8fc;strokeColor=#6c8ebf;" parent="1" vertex="1">
          <mxGeometry x="380" y="380" width="120" height="60" as="geometry" />
        </mxCell>
        <mxCell id="QDiaEL_Vq7gMq8w6c5RD-10" style="rounded=0;orthogonalLoop=1;jettySize=auto;html=1;dashed=1;dashPattern=8 8;fillColor=#ffe6cc;strokeColor=#d79b00;entryX=0;entryY=1;entryDx=0;entryDy=0;" parent="1" source="GJdVX7ViqiDl456XCQRg-12" target="GJdVX7ViqiDl456XCQRg-10" edge="1">
          <mxGeometry relative="1" as="geometry">
            <mxPoint x="600" y="450" as="targetPoint" />
          </mxGeometry>
        </mxCell>
        <mxCell id="GJdVX7ViqiDl456XCQRg-12" value="Rioxarray" style="rounded=1;whiteSpace=wrap;html=1;fillColor=#dae8fc;strokeColor=#6c8ebf;" parent="1" vertex="1">
          <mxGeometry x="380" y="460" width="120" height="60" as="geometry" />
        </mxCell>
        <mxCell id="QDiaEL_Vq7gMq8w6c5RD-14" style="rounded=0;orthogonalLoop=1;jettySize=auto;html=1;dashed=1;dashPattern=8 8;fillColor=#d5e8d4;strokeColor=#82b366;" parent="1" source="GJdVX7ViqiDl456XCQRg-13" target="GJdVX7ViqiDl456XCQRg-10" edge="1">
          <mxGeometry relative="1" as="geometry" />
        </mxCell>
        <mxCell id="GJdVX7ViqiDl456XCQRg-13" value="NetCDF4-python" style="rounded=1;whiteSpace=wrap;html=1;fillColor=#dae8fc;strokeColor=#6c8ebf;" parent="1" vertex="1">
          <mxGeometry x="800" y="480" width="120" height="60" as="geometry" />
        </mxCell>
        <mxCell id="QDiaEL_Vq7gMq8w6c5RD-13" style="rounded=0;orthogonalLoop=1;jettySize=auto;html=1;" parent="1" source="GJdVX7ViqiDl456XCQRg-14" target="GJdVX7ViqiDl456XCQRg-13" edge="1">
          <mxGeometry relative="1" as="geometry" />
        </mxCell>
        <mxCell id="cOpkqLJVpFi0IKKhEmXB-28" style="rounded=0;orthogonalLoop=1;jettySize=auto;html=1;exitX=0.25;exitY=1;exitDx=0;exitDy=0;entryX=0.75;entryY=0;entryDx=0;entryDy=0;" parent="1" source="GJdVX7ViqiDl456XCQRg-14" target="cOpkqLJVpFi0IKKhEmXB-27" edge="1">
          <mxGeometry relative="1" as="geometry" />
        </mxCell>
        <mxCell id="GJdVX7ViqiDl456XCQRg-14" value="NetCDF" style="rounded=1;whiteSpace=wrap;html=1;" parent="1" vertex="1">
          <mxGeometry x="800" y="690" width="120" height="60" as="geometry" />
        </mxCell>
        <mxCell id="QDiaEL_Vq7gMq8w6c5RD-15" value="" style="edgeStyle=orthogonalEdgeStyle;rounded=0;orthogonalLoop=1;jettySize=auto;html=1;" parent="1" source="GJdVX7ViqiDl456XCQRg-15" target="GJdVX7ViqiDl456XCQRg-16" edge="1">
          <mxGeometry relative="1" as="geometry" />
        </mxCell>
        <mxCell id="QDiaEL_Vq7gMq8w6c5RD-16" style="rounded=0;orthogonalLoop=1;jettySize=auto;html=1;entryX=0.5;entryY=1;entryDx=0;entryDy=0;" parent="1" source="GJdVX7ViqiDl456XCQRg-16" target="GJdVX7ViqiDl456XCQRg-17" edge="1">
          <mxGeometry relative="1" as="geometry" />
        </mxCell>
        <mxCell id="cOpkqLJVpFi0IKKhEmXB-19" value="" style="edgeStyle=orthogonalEdgeStyle;rounded=0;orthogonalLoop=1;jettySize=auto;html=1;" parent="1" source="GJdVX7ViqiDl456XCQRg-16" target="cOpkqLJVpFi0IKKhEmXB-8" edge="1">
          <mxGeometry relative="1" as="geometry" />
        </mxCell>
        <mxCell id="GJdVX7ViqiDl456XCQRg-16" value="s2geography" style="rounded=1;whiteSpace=wrap;html=1;" parent="1" vertex="1">
          <mxGeometry x="-50" y="690" width="120" height="60" as="geometry" />
        </mxCell>
        <mxCell id="QDiaEL_Vq7gMq8w6c5RD-17" style="rounded=0;orthogonalLoop=1;jettySize=auto;html=1;dashed=1;dashPattern=12 12;fillColor=#f8cecc;strokeColor=#b85450;" parent="1" source="GJdVX7ViqiDl456XCQRg-17" target="GJdVX7ViqiDl456XCQRg-8" edge="1">
          <mxGeometry relative="1" as="geometry" />
        </mxCell>
        <mxCell id="QDiaEL_Vq7gMq8w6c5RD-22" style="rounded=0;orthogonalLoop=1;jettySize=auto;html=1;dashed=1;dashPattern=12 12;fillColor=#f8cecc;strokeColor=#b85450;" parent="1" source="GJdVX7ViqiDl456XCQRg-17" target="GJdVX7ViqiDl456XCQRg-11" edge="1">
          <mxGeometry relative="1" as="geometry" />
        </mxCell>
        <mxCell id="GJdVX7ViqiDl456XCQRg-17" value="spherely" style="rounded=1;whiteSpace=wrap;html=1;fillColor=#dae8fc;strokeColor=#6c8ebf;" parent="1" vertex="1">
          <mxGeometry x="-50" y="580" width="120" height="60" as="geometry" />
        </mxCell>
        <mxCell id="QDiaEL_Vq7gMq8w6c5RD-21" style="rounded=0;orthogonalLoop=1;jettySize=auto;html=1;" parent="1" source="QDiaEL_Vq7gMq8w6c5RD-19" target="GJdVX7ViqiDl456XCQRg-8" edge="1">
          <mxGeometry relative="1" as="geometry" />
        </mxCell>
        <mxCell id="QDiaEL_Vq7gMq8w6c5RD-27" style="rounded=0;orthogonalLoop=1;jettySize=auto;html=1;" parent="1" source="QDiaEL_Vq7gMq8w6c5RD-19" target="GJdVX7ViqiDl456XCQRg-12" edge="1">
          <mxGeometry relative="1" as="geometry" />
        </mxCell>
        <mxCell id="QDiaEL_Vq7gMq8w6c5RD-19" value="PyPROJ" style="rounded=1;whiteSpace=wrap;html=1;fillColor=#dae8fc;strokeColor=#6c8ebf;" parent="1" vertex="1">
          <mxGeometry x="520" y="580" width="120" height="60" as="geometry" />
        </mxCell>
        <mxCell id="QDiaEL_Vq7gMq8w6c5RD-25" style="rounded=0;orthogonalLoop=1;jettySize=auto;html=1;dashed=1;dashPattern=12 12;fillColor=#d5e8d4;strokeColor=#82b366;" parent="1" source="QDiaEL_Vq7gMq8w6c5RD-23" target="GJdVX7ViqiDl456XCQRg-10" edge="1">
          <mxGeometry relative="1" as="geometry" />
        </mxCell>
        <mxCell id="QDiaEL_Vq7gMq8w6c5RD-23" value="Zarr-python" style="rounded=1;whiteSpace=wrap;html=1;fillColor=#dae8fc;strokeColor=#6c8ebf;" parent="1" vertex="1">
          <mxGeometry x="800" y="380" width="120" height="60" as="geometry" />
        </mxCell>
        <mxCell id="D4bfI-xI0zdicXx17f72-6" value="xarray extensions" style="text;strokeColor=none;fillColor=none;align=left;verticalAlign=middle;spacingLeft=4;spacingRight=4;overflow=hidden;points=[[0,0.5],[1,0.5]];portConstraint=eastwest;rotatable=0;whiteSpace=wrap;html=1;" parent="1" vertex="1">
          <mxGeometry x="422" y="340" width="80" height="30" as="geometry" />
        </mxCell>
        <mxCell id="D4bfI-xI0zdicXx17f72-12" value="Compiled dependencies" style="text;strokeColor=none;fillColor=none;align=left;verticalAlign=middle;spacingLeft=4;spacingRight=4;overflow=hidden;points=[[0,0.5],[1,0.5]];portConstraint=eastwest;rotatable=0;whiteSpace=wrap;html=1;" parent="1" vertex="1">
          <mxGeometry x="-150" y="700" width="90" height="30" as="geometry" />
        </mxCell>
        <mxCell id="GJdVX7ViqiDl456XCQRg-15" value="s2geometry" style="rounded=1;whiteSpace=wrap;html=1;" parent="1" vertex="1">
          <mxGeometry x="90" y="690" width="120" height="60" as="geometry" />
        </mxCell>
        <mxCell id="cOpkqLJVpFi0IKKhEmXB-3" value="" style="endArrow=classic;html=1;rounded=0;exitX=0.088;exitY=0.025;exitDx=0;exitDy=0;exitPerimeter=0;" parent="1" source="GJdVX7ViqiDl456XCQRg-1" target="GJdVX7ViqiDl456XCQRg-4" edge="1">
          <mxGeometry width="50" height="50" relative="1" as="geometry">
            <mxPoint x="260" y="720" as="sourcePoint" />
            <mxPoint x="315" y="670" as="targetPoint" />
          </mxGeometry>
        </mxCell>
        <mxCell id="cOpkqLJVpFi0IKKhEmXB-4" value="" style="rounded=0;orthogonalLoop=1;jettySize=auto;html=1;" parent="1" source="GJdVX7ViqiDl456XCQRg-9" edge="1">
          <mxGeometry relative="1" as="geometry">
            <mxPoint x="513" y="240" as="sourcePoint" />
            <mxPoint x="420" y="380" as="targetPoint" />
          </mxGeometry>
        </mxCell>
        <mxCell id="D4bfI-xI0zdicXx17f72-9" value="" style="rounded=0;whiteSpace=wrap;html=1;fillColor=none;strokeColor=#82b366;" parent="1" vertex="1">
          <mxGeometry x="364" y="370" width="156" height="170" as="geometry" />
        </mxCell>
        <mxCell id="cOpkqLJVpFi0IKKhEmXB-6" value="" style="endArrow=classic;html=1;rounded=0;entryX=0.842;entryY=0;entryDx=0;entryDy=0;entryPerimeter=0;exitX=0.142;exitY=1.058;exitDx=0;exitDy=0;exitPerimeter=0;" parent="1" source="GJdVX7ViqiDl456XCQRg-9" target="GJdVX7ViqiDl456XCQRg-8" edge="1">
          <mxGeometry width="50" height="50" relative="1" as="geometry">
            <mxPoint x="310" y="260" as="sourcePoint" />
            <mxPoint x="230" y="240" as="targetPoint" />
          </mxGeometry>
        </mxCell>
        <mxCell id="cOpkqLJVpFi0IKKhEmXB-7" value="sf" style="rounded=1;whiteSpace=wrap;html=1;fillColor=#dae8fc;strokeColor=#6c8ebf;" parent="1" vertex="1">
          <mxGeometry x="230" y="810" width="120" height="60" as="geometry" />
        </mxCell>
        <mxCell id="cOpkqLJVpFi0IKKhEmXB-18" style="edgeStyle=orthogonalEdgeStyle;rounded=0;orthogonalLoop=1;jettySize=auto;html=1;exitX=1;exitY=0.5;exitDx=0;exitDy=0;entryX=0;entryY=0.5;entryDx=0;entryDy=0;" parent="1" source="cOpkqLJVpFi0IKKhEmXB-8" target="cOpkqLJVpFi0IKKhEmXB-7" edge="1">
          <mxGeometry relative="1" as="geometry" />
        </mxCell>
        <mxCell id="cOpkqLJVpFi0IKKhEmXB-8" value="s2" style="rounded=1;whiteSpace=wrap;html=1;fillColor=#dae8fc;strokeColor=#6c8ebf;" parent="1" vertex="1">
          <mxGeometry x="90" y="810" width="120" height="60" as="geometry" />
        </mxCell>
        <mxCell id="cOpkqLJVpFi0IKKhEmXB-9" value="stars" style="rounded=1;whiteSpace=wrap;html=1;fillColor=#dae8fc;strokeColor=#6c8ebf;" parent="1" vertex="1">
          <mxGeometry x="382" y="910" width="120" height="60" as="geometry" />
        </mxCell>
        <mxCell id="cOpkqLJVpFi0IKKhEmXB-10" value="terra" style="rounded=1;whiteSpace=wrap;html=1;fillColor=#dae8fc;strokeColor=#6c8ebf;" parent="1" vertex="1">
          <mxGeometry x="560" y="810" width="120" height="60" as="geometry" />
        </mxCell>
        <mxCell id="cOpkqLJVpFi0IKKhEmXB-13" value="" style="edgeStyle=orthogonalEdgeStyle;rounded=0;orthogonalLoop=1;jettySize=auto;html=1;" parent="1" source="cOpkqLJVpFi0IKKhEmXB-11" target="cOpkqLJVpFi0IKKhEmXB-9" edge="1">
          <mxGeometry relative="1" as="geometry" />
        </mxCell>
        <mxCell id="cOpkqLJVpFi0IKKhEmXB-11" value="RNetCDF" style="rounded=1;whiteSpace=wrap;html=1;fillColor=#dae8fc;strokeColor=#6c8ebf;" parent="1" vertex="1">
          <mxGeometry x="800" y="910" width="120" height="60" as="geometry" />
        </mxCell>
        <mxCell id="cOpkqLJVpFi0IKKhEmXB-12" value="" style="endArrow=classic;html=1;rounded=0;exitX=0.5;exitY=1;exitDx=0;exitDy=0;entryX=0.5;entryY=0;entryDx=0;entryDy=0;" parent="1" source="GJdVX7ViqiDl456XCQRg-14" target="cOpkqLJVpFi0IKKhEmXB-11" edge="1">
          <mxGeometry width="50" height="50" relative="1" as="geometry">
            <mxPoint x="780" y="800" as="sourcePoint" />
            <mxPoint x="840" y="900" as="targetPoint" />
          </mxGeometry>
        </mxCell>
        <mxCell id="cOpkqLJVpFi0IKKhEmXB-21" style="rounded=0;orthogonalLoop=1;jettySize=auto;html=1;entryX=1;entryY=0;entryDx=0;entryDy=0;" parent="1" target="cOpkqLJVpFi0IKKhEmXB-7" edge="1">
          <mxGeometry relative="1" as="geometry">
            <mxPoint x="550" y="750" as="sourcePoint" />
          </mxGeometry>
        </mxCell>
        <mxCell id="cOpkqLJVpFi0IKKhEmXB-24" style="rounded=0;orthogonalLoop=1;jettySize=auto;html=1;exitX=1;exitY=1;exitDx=0;exitDy=0;entryX=0.108;entryY=-0.042;entryDx=0;entryDy=0;entryPerimeter=0;" parent="1" source="cOpkqLJVpFi0IKKhEmXB-7" target="cOpkqLJVpFi0IKKhEmXB-9" edge="1">
          <mxGeometry relative="1" as="geometry" />
        </mxCell>
        <mxCell id="cOpkqLJVpFi0IKKhEmXB-26" style="rounded=0;orthogonalLoop=1;jettySize=auto;html=1;exitX=0.088;exitY=0.992;exitDx=0;exitDy=0;entryX=1;entryY=0;entryDx=0;entryDy=0;exitPerimeter=0;" parent="1" source="cOpkqLJVpFi0IKKhEmXB-25" target="kmKOHBo_5ijxBkN7VlWp-1" edge="1">
          <mxGeometry relative="1" as="geometry" />
        </mxCell>
        <mxCell id="cOpkqLJVpFi0IKKhEmXB-25" value="UDUNITS" style="rounded=1;whiteSpace=wrap;html=1;" parent="1" vertex="1">
          <mxGeometry x="670" y="690" width="120" height="60" as="geometry" />
        </mxCell>
        <mxCell id="cOpkqLJVpFi0IKKhEmXB-29" style="edgeStyle=orthogonalEdgeStyle;rounded=0;orthogonalLoop=1;jettySize=auto;html=1;exitX=0;exitY=0.5;exitDx=0;exitDy=0;entryX=1;entryY=0.5;entryDx=0;entryDy=0;" parent="1" source="cOpkqLJVpFi0IKKhEmXB-27" target="cOpkqLJVpFi0IKKhEmXB-10" edge="1">
          <mxGeometry relative="1" as="geometry" />
        </mxCell>
        <mxCell id="cOpkqLJVpFi0IKKhEmXB-27" value="ncdf4" style="rounded=1;whiteSpace=wrap;html=1;fillColor=#dae8fc;strokeColor=#6c8ebf;" parent="1" vertex="1">
          <mxGeometry x="720" y="810" width="120" height="60" as="geometry" />
        </mxCell>
        <mxCell id="kmKOHBo_5ijxBkN7VlWp-2" style="edgeStyle=orthogonalEdgeStyle;rounded=0;orthogonalLoop=1;jettySize=auto;html=1;exitX=0;exitY=0.5;exitDx=0;exitDy=0;entryX=1;entryY=0.5;entryDx=0;entryDy=0;" edge="1" parent="1" source="kmKOHBo_5ijxBkN7VlWp-1" target="cOpkqLJVpFi0IKKhEmXB-7">
          <mxGeometry relative="1" as="geometry">
            <mxPoint x="370" y="840" as="targetPoint" />
          </mxGeometry>
        </mxCell>
        <mxCell id="kmKOHBo_5ijxBkN7VlWp-5" style="rounded=0;orthogonalLoop=1;jettySize=auto;html=1;exitX=0.5;exitY=1;exitDx=0;exitDy=0;entryX=0.5;entryY=0;entryDx=0;entryDy=0;" edge="1" parent="1" source="kmKOHBo_5ijxBkN7VlWp-1" target="cOpkqLJVpFi0IKKhEmXB-9">
          <mxGeometry relative="1" as="geometry" />
        </mxCell>
        <mxCell id="kmKOHBo_5ijxBkN7VlWp-1" value="units" style="rounded=1;whiteSpace=wrap;html=1;fillColor=#dae8fc;strokeColor=#6c8ebf;" vertex="1" parent="1">
          <mxGeometry x="382" y="810" width="120" height="60" as="geometry" />
        </mxCell>
        <mxCell id="kmKOHBo_5ijxBkN7VlWp-6" value="" style="shape=image;verticalLabelPosition=bottom;labelBackgroundColor=default;verticalAlign=top;aspect=fixed;imageAspect=0;image=data:image/png,iVBORw0KGgoAAAANSUhEUgAAARIAAADwCAYAAADMzOseAAAABGdBTUEAALGPC/xhBQAAAAFzUkdCAK7OHOkAAAAgY0hSTQAAeiYAAICEAAD6AAAAgOgAAHUwAADqYAAAOpgAABdwnLpRPAAAAAZiS0dEAP8A/wD/oL2nkwAAAAlwSFlzAAAASAAAAEgARslrPgAAQwBJREFUeNrtnXeYHNWVt99T3ROkUUBIgEiSyCYYWCfW67wmKAeCckJCQoDJTuvPaXe97NpmMQZjMgJEEkJCIslgQFnAYoOxARsQSUgiCIQkNLG76/f9Ud1iQuc01TN1nmceteZWV9+prvvW+Z1z77lGYIEBt732PNv79+To5zeaKyekkGExzMUMgcXkApiZdu3o4R77hee1+vF/ZdbcI4KLFxgWXIKuY39cu4rG/i517zphoRqJWrCeQB9QH6A30AvoK+iDqAN6AnVALagaqAKqBA7CgBAgUCz+MVEgItECtACNQD2oHtgF7EDsFNQDO+M/n4CaEE2OrEW47tBhJwVfWACSwDrDVj+xjobqCFVRJ+SKWsN6g/YG7QXsCxwA7AfsLRiAGOBBhB6gWg8WVAMmtf/u1fZ/yratXbuQIAY0A00eaNQAfIz4ULAVeB/YDGzyXmsr8BGi3mKhFkwaNuLbwRcegCSwQu3xJ1fiWsgJST0wBgD7A4OAQwWHIAZ50FC/OCxqAGf3sFYKCHT4VQ6QyAwROjQnfpO0jSioAbED2CoPLBuBN4ANoI2ILcBOQuFmECNOCQATgCSwpPbkyjUAjjyZsTfiEOBo0BHA4cBgYC+gThBKBYmMnkQhEEkHiaTvzQiRNg1J2ltA2xHvC94E/gG8BLwq9I65bK2iqsU1l2EjTgxuogAk3Qwa69Z4UYUwIWBPYAhwjOBzwGfjnsY+oB6tvx+lflECT6N4gMnDS0kHmBiwC+ndOFheELwAvCzYRJUacE2jh54S3GgBSLqerVi1BtdCjrmxfnEP43PAF4DjgcHypEkoCQ3IJFWyavePlCnUS9ndIbXxXPgA2ID0Z+AZ0IuCjeDUgxg9cmhwEwYgqTxbtWotvUIuO6JOD4zBwBcQXwV9ATgkHtNwOo7/IkOisqTM7vZCAANE4gHdvwNPAWsRL2J6D5zY6JGBtxKAxM9ex5OrUUxm1aG+wFHANwRfB45BDASFi+lpdBMp06FDObeLBtDbwDOCVcDThr0VaXGb9hoY4utfCcASgKSTbfXqtThgEbFnXKachAePIwV9AUvmaRTshXRvKZN9e6sLFW+PAu8Bf0I8AVoj7NVQONbYvKsHp48PMkIBSMpkT65dy67BjfR+s2dfpOOB4cC3gCOBXko/KguCSEYvpEKlTMorkRYwHSCR8kKkaHfxUs7PAsuBlYgNQi3jxowIbvQAJKWxlavWI1OtBwwNRwwFjo3HO0ruaZRy/kcXkzIZAJO03QW2INaBHjJYLbNNgDt29PDg5g9AUiA81qzDcbCYa/shnQiMBb6MtHf7a5cOIoGUKT5E8vNSUrS3/U9E8DrwKPAA4tlQjfvJ9o29mX72N4NBEYAkO3ti7SqqYlW45taCHS8PHiOBw5Gq0g7LQMr4WcrkA5ideNJnMegRs9g7kuOOGzsqGCgBSJLbinXrqN+zhV5bqwfEYx4TBN8E+hcEiVJBpCtJmUK8lHwhkZuXEhNsAB4EFiG9ADSfOi4ASgCSBEBWrUWS4zjOgcBoYBLwOXlrV/LyNEoJmEDKFF3KkP6Sqf1/twKPA3eC1ljMdrpV4rQxowKQdEdbtXodIEfY4cBEYAJwGBBSNgAJpEzRPA0fSZkO/0nTXi9YB9wu8YfanvZRY4M449RRAUi6g61ctQ4ghHEMMA04FW+9ixUFEt1MyuQV7/C/lEn3VbRvb0Y8C9wKPBhp7P9BVd2HnDZ2dACSLumBrFkHRkguxwAzgDPw6ncU7GkEUqZLS5nUXkrbE0VAfwZukVga7mlbow3i9NNGByDpEgBZux4wk9zDEbOAya0B0vbGKK+UKamXEkiZYksZ0n+VuwEUiXso1wMPSnwccuDUU0cHIKlICbPmKaL0Jcz2QaAZwAzEwSRbmu9HKVMARAIpU1Ipk75drSQPrAWucdFjiHqrhjNGjwlAUgm2/ulnaGqO4ji2JzAemIf0WeKrbYvvaQRSpptKmWy9lHpgOeIqoafBIuNPHxOAxO9eSLw26beBi0FfQ1SnvgcDKRNImYKlTMo/sF37VuAu4FpzWl6VG9YZp48LQOKrOMia9WCYxNEeQDgd1Kf9FxxImUDKlFDKdGxPfuFeE/xOcIfBx+NPHxuApLNtxZp1ODgI9cfLxJwHHFxaTyPTezNBIpAy/pUymSBRJC9FRIAVwK9Aq4Do+DPGBSDpFIisfgqDMKavAf8GfAsUTvYFBlImkDKdIGWy8VI+BOYLXV3l1rzTXN3ApHGnByAph61Zs54o4MC+8jyQucBeyUZH95EymSARSJmsIVFcKdP23SkuntCfEJeBHgFaJow/NQBJSWMhq9chCJnZNwU/Bb4KOJ0ylT2QMoGUKRAw7dp34M2OvQJvbx8mjB8XgKSYtnrNelyvs/3jXsh3UnkhgZSpFCmTndTpYlKmbWvyL/RZ4N9dl8fMiE6cMC4ASbEgYq6Z6+gLwM8FJwPhQMoEUqZCpUwqiLS6fPoI+B3Y1UgfEQ4x0edzT8zvEAFqBZMFPwYO6gxPo1KlTFpcqsyQCKRMrl5KFPgD2E8+3OX8pX9djEkTTw1AkoutXfMnYrSAtzH2DwWzgbpAylSolMkKIt1SymTT/prgZ7i6DyMyaeJpvgSJ47cOrVq7DjZ/HuDzgtsF56eCiLKFiErjpUilgYgyBU2TvjeT1MlU5vDTzalStqcFTBoQxNuV7JKUAiJK7qUUxdNQ8taCIKK07YchXYvxU6Df3fcsDjySjBBZsx6TwjIbJ7gMODSQMj6WMoV4KYGUyQ4wtJE69wM/kmxDuCrG+NPPCECSFCJQJzhP8ANgz0DKBFKmG0qZZBBpbf8n6bsNoaY1Pdwapkw8IwAJwJo1a4gRxtDegp8Ds4Ca7pSVyX3+R5CVyRoSJfA0ipCVSTsm0rXH294GfggsAmKTJ53evUGyavV65ADiUODXeMWXgwlm3VzK5CR1iiplMkGirFImU/s24L8MrgUaJ3UyTDoNJCtXrwNzAH0OuAr4Sj5SJmupU/G73wVSpptKmfjXlrS9EXG10GWY7ZjSiTDplKzNyrVrcbYNAPRNvGnBX8k3K/NpNL1ysjKpMy+p2rKROj7MypQKIl0rK5NRyij1B/cQuhi4HGmvO+9a1H08kpVr1uM4mOsyLO6JHOJvKZMJEoGUKXU8pCjxjsqXMum8FDceL7kU2IyqmTJlTNcFycq16zEwidOAK0AHBlImkDJF81K6vpRp9ZUmvXIPIS4UvBnCYdKU07oeSFatfRrMceRGx8chsm+QlSHPVbm+ycrE8OY3RIAGoAHRDGoGmgWNeD8RIIaIxo+PepuT4QAhEv+KKqA2Xi6zSlCFt+NhLaIW6AFUg0KCcPy9XSwrk/aD0wIm3rc/AOcavNlCFWdOKc+iv3DZPJGQa27UnQhcgbRPl5EyJQSMD6RMFK948cfAdsQHoHeBLcAHeJmDj+LtnyAa8KqnN2M0IyIGrkxIJgM5INcFzJAZhszBkGRC5kFFBlRhVmWiWp9CpBbUU9AX2BMYgOiPtz/zAGAgaM94e584fMLFAkxW7eWRMum8lKHAtYJzq4i80WU8khVr1xN1wlTFouNBVyH2CaRMAV5KaaRMDLET9D6wWfAm8Hr8Z+NuWEgNhrWMmjc0tu6up/jKN75MZ9viJQ/i4JorqwKrltEb1A+xJ95arSHAYNCBgkHA3vG2mrb3f8VJmUztyxHnYLw9dcr4ygbJijXrqQ43EYnWjAGuQewfSJlOlzICdgLvAK8CryJeAr1q8I7QDsmaZHLHjBxGpduSxUsxZDGsGqyXZHuDDsTb5/lI718dJBiI6JVsTPhcyqQDzDLQecDmaVMnVCZIVjy1HqdJKMy3ETfFnwwVL2UySh3/SRk37lFsEPwNeB74K/CGwbY+sd4tTaFmTh7xLbqT3btkKYCZSw9B//jmaUcDxwGfBQ4GDZAXu/GzlElzOwngHuB8jA+bm2s4a9bYygHJytXrE1tyn4CYHyd/15YyBU5lL7KU2Qm8gfQcsB54TugNFz4xcEePGEpgSeBy71KQHBzrDRokOBZxAvAF4PB4XMZ8KmWSQQS81PCNEt8Hdk6fNqEyQLJq1VpkBvAZvMlmJ3R1KZN36rZ4UsbF24Dpr8BKYI3QP8x1t8ksNioAR152z6JlYJi5bl+8lehfAr4h6fPAgdBx87WSSZnCvJQI8CvBfwLNpYBJ0UGycvU6gP2AG4HhgZQpmZRxBe8CTwFPxD2P18NU10doZtTwUwISFBssC5dgXlp6f+CLwCl4BciHADU+kTKp2utBP0T2e8CdPn2Cf0GyavU6wHoLXQGcFUiZoksZIT4EnhUsB1Zg9ppkLWEnyrChgedRLlu4cAnIQjLtB5wgaRjwLbzMUKgTpUyKB5WIe61nhxzdH4k6zJwxwX8g8SBCWN7y5p8A1YGUKZaUoRH0N8SDwCOCf4RFQ6PBuOEnB6O6E+13C+6hf7gaVwo5DgcDJ+KtYj8B6NdJUiYdYF4FpmH2f3JjzJgx2T8gWbV6PS7CYCLesuY9AilTsJQRsAX0BLAEsQ45H2IuIwJ4+NIW3LOYKjnI3DrgcxKng0YBg2m/QLb0UoY0BX1WCk0He2fG9In+AMnqtU/julHAvgjcCRwWTDArSMpEgX8Ai0GLDf1Dskh1TYyTvj0sGK0VYnfeuRihkGMcgjEamAAch6gqo5RJ134jcDFQP2P6pM4HSTy4OhBYAJxYMCQqTcpQtAV3TcAzwJ2GLQ85zmZJGjr028GorGC7e+FiQtUO0abYPogxQjOBz5Ms41MaKdPu5e5fNAPft5hztRxpxoyJnQeSlavX410QXSaPbo7/pUxuUqcMAdcGYB0wH/FoTY+mbY0NPRk1IgBIV7I77ljI9g8/ot/eAwaAjcDbs/pLQLgMUqZju/dyCzAVY4ViMPPMSeUHyco163BdMGMScD3QO5AyOXkhjXhzPm4CnjC5O2IWZtSwACBdPY7Sq6mFhurw3sAExFzBUd56xiJBIpPUaftyLWgSsGlmAYHXvEGywpM0R+EVVDkqkDJZQyQieBr4PeIR13F2VkWbGTpyeDDKulUMZRHVrkOz4w4BnYlX9PyAEkqZVO0CrjRvI7qWfGFiBUCkF3AdMCWQMll5KS7wguBajPsVi33ohMIMH3piMKq6s4dy572AOYY+D1yKGA30KJGUSeWl7ETMBu5zHDF9+pTSg2TFqvWYE0NyZiP9DqgNpEzGuSNbBDcDN1lP26hdYsSIk4JRFFirGMq9YNQhThd8D3R0iaRMqrbngNOBN2fOnFwOkKwF4yjEYrz1NBUvZUq4OVU9sEzwW6Q/A7FgDkhgqWFyDzE3jOPEjsCb2DkB6FFkKZPOS7nKMX1XIjJz5pTSgWTFqrWA1YCuBuYEUibNXyr+BvwPsBSsEWti+NCRwWgJLLPcuWMhQE9gMuL/AUOKLGVStX8MTAUeObP0IGEscBvQp7OlTEGQKJ2U2YG4A/hNVNHXq6yKYcOCOEhguXonCwmbaxHX+aLgv0HfajNeC5cyyd8vVsQ9oa1nnjml+CCJQ2QfvCzN1wIpk1TKvAD8B8ZDEi0jhgVxkMAKlDoyDPYD/RSYiagpopRJRqQY8P2qKq5obobZs6cUDyQrV68l5ro45lwC/AoIVU7QtCxSpgmxEPFfFtZrbsSCYGpgRbPbF9zjSR1xHvBvQL8iSZlUXsproDHA36t6hpk2IfOs16x22pPAMedwvNl4obZSJskOdW1okG4HO5F5n91MkGjrSZRqwZ1St7+DuAQ4D+O1YSefHEAksKLa9GkTMWgw7DfAdwSbcoJElhBptZ/iYcA8XEKR+mhxPJIVK9fEy885lwl+EEiZNid9GviBG4utMcdRuTMyR5y/BuAIvMB3dcpbRtmeMVNhnuyPTXXu0vQl/z5Juf8NcWvBK2n5IbBF4l3gPcSH5tAI6I3rivtAuX3B3ag6Bs2hYcBvgcOKIGVStb8PjAOecmPGWXPSS5y0+9osXrLEK5todhwwpTKkTKZBVBQpEwHuBX4qszdCIYdhwzotrTsYOBdv35csB1yxBq6frKwQaXtptHuDsK0Y70j8HfTCQWc/9hew1820XcJ98/rC7pHp0yZx++13EYuGljvhWAPi98BRRZAyyW74fYCzhT1nIZoL8kieXLUWRAjjSuA7QVZGALsQ/4txhUk7W3pUM+ab3+yUoRP3SE4CluKlC/P0RnKFiN+8kc7rTxrPyAW24+0N9DSwCvg/mbMFI/bWtfln8ubPX0goHEWu81V569yOysHTyAUw24DTgJUgZs+alp9HEj/x8YjTAikjvJ3m+CnSfGQtw3w5uay4ECnW8d0MIuDFH/eM/3wxHl980+SuQDx40LzHnt7e2PzxXr1qefWa3CTQmWdO4Nbb7sSMtUjn4NVHPrxAKZOsfU/QWYinIL1XkjLY+uSKeGwETQPtmwtEVAwpU8CCuxS92R00JV07KdrF68DZDrrRzFqGDz+pW0DE33ERv0EkrdXgzQQ/B1iEeGCP2poLWiLuoEFz/mCD5zya08lmzogvcZNWAxci3slbyiQNuO5uH4pX7oA77rgtd5BgeFPhvYBLckikyNq0pUWpszJFiIekz8oQn6U6q4dTtTSGucOGBRDpfIjkeZVUnu8gg9UBX5V0BbDcMfuRGQcdMOtRG3TWoznAZBJmxj51Pf6AN6V+W5ZZGVLV9kwyIPoD0yQLNzWFcgPJkyvX4MQAOAOvKnZuUiaVl6L0XkpBqducvJSspQyIPwOz5Wh1YyzKiAAi5f/rOj9DU5L+4FWbPwr4D+ChcJiLHYe9B895jIPO/kNWZ5kxYzLv1jcSMxbGZ8A2pfI0cvJS2raNwPTZ+KZ3uXkkbogDgFO7sZQB+JNgLsazruswfPiJPgRIPmneUj+1i+uNdEWItDuPEwfKL4HFZhojOTVD5j6W1dlmzZiMI8XM9Hvg1vb1GtNJmSwgAt4+VadZz57cdNPt2YFkxcrViZdDgSO7qZRB8LzgbJOei5rDKJ+vl+mKcYhi9cfnEGltYbwNt24HXQ4aMmjOYxw0N7N3cubMKcilAfELvMp7WUkZpRkQ7aTOWNXXH5i1RyIvI9wLOE2JjX66l5RB8DJwjsFzMTNGn9JVyh8GEPExRFpbH+A80ELH3BOFnCFzl2fxMDGAzcBPRCL4mruUafvs391+BN6ePdx444JsQAKCzymxZ28ppEw2UqdzpAyCt4ALJD0jjFE+XninpEDuPPngR8+oAiGSON7wsiULwM4FpzaTZzJr1mRcGc2RmnXA5aCWfKRMitX8YWAcWE+zDB7JkyvX0ivcB2AUol/JpIx8KWWQt6Xh96v71jyBYESXWf4fpHk7FyIFxZ0GerET/VzQd0gGmMyeNZnqqiZAt8Z3ZsxXyiT7q78s9NlkW2Y4bf9YsSuycyDixFylDFl4KT6WMuBVdf+FzF3csqOJkSNODiDSLSBSjvhVwd5RT+BSictdl/6D56SHiWMOiJ0egDyJk4eUSfY4H4B0ily46abb0kkbAToB9JlcpUymeIiPpQx405lvQLrRXHNHDAsgUhr5ULKndgHnKa03UgSIJPoSBmaZcTkwYPDcP3DA5CeTHjtz5mTMRLXj/gm4Xt79nauU6ahAvPaTzdSv/aG7QfL4ilW4xAw4mVYFnbu4lEnYo8B/Y9bYdWqqyocD13dxiJL3p0gQaT1epwP/hegTqmtJeaYzz5xGs+tIMB94Nk8pk2wQHwMcm1LaGIZDaCDx6mfdQMok7FXg/wHv44ruYn7L0HRFiBSjP0oejjgT9ENQ7eA5qbM5ruOCqy1I19BurUyWUiZZB/oKvuUYXHfDbamkDccDhxQsZYo6wYxSSJmE7QL+yzF7XhgjuklcJEjzVo5nlOL4KuBCYAY1VZYqADtn5vTE+v4H8VYf5yNlkrV/wxW9Q9bOI3ly5erEw/irSixH980Es0yQyEvKJNrvkNyFMddlZDfJ0HTVkgBdESIZ+tMT+DHNkW+4EkNSeCazZ08Dr5zBjfFtYnOVMnQQJtLRkg5VO80VL6VIb8G/dAMpk2h/AbjczJrDFuo2cZGuCJHKlVcFx50OAH5hcIAy/BXCHgfW5SFlki2PGUBinll7kEgMRokNr7qslEmctAHxa+B1ixlDu8TG3UGat7j9Kdngzycuku74rwAXGoRTxUuqqppA7nakBXjV/XKVMu29CAO+DArdcMP8DjGSY0F7VYqUIT8pk/jlMoP7TTB85EkBRCoOIsUb/MWSNEVM8+ZzTc8UfBNg0JyHOzTOmL57L7vHgL/mIWWStR/nYv3jS2pwHn9iFTIB+iKJtTUVIGWUu5RJNGwGrnShYXg32T6z680V6fJp3lzP3x+4GOhrKRb0Sw4y9z28LWSLsandYBMHJ5odDEzUAZ+tdCmTGjBt2u9wcf8k1A0hUo7zBGneMkMkYf8KjPa8ko4SZ86cqSAHeRmc93KUMh29FOgLOibxnwS+9gEOqXQpk8YLSfzzKnCL4bijhp/SDSESpHm7KEQAaiXNkTQgXafM+DvS+jykTDvAyIDjwOX66+fvBskQYK8uKmVat9/hhOtepRt4IwFEKn6uSD4xmi8BQzGx/5lJSjbGmpCrZuBhvK05c5Eyydo/I5w6ACcOiMMk6rqolEnYa8A9brSekV3cGwnminS3qfi7rQaYgqx3KBTrKG/Onpt4uRYvVlho5cMhiD0FOI63nOeILiplWtviaLPzGt1nFnyXgoh/YjT+K0TdLmP0ZbztL1Kb8Zbg2SJUPhwA7I/AcY0aT9p0SSmTsPdAi8I1sS5UHiCbmzMoCVDsgdvJad5s+tMXGBNWlQ0+q2PQ1SWEXLUAq/OufPjpr3uDDgDhgOL/6XJSpnX7k3J5sat7I+VN8/px+4iKKQlQKogk7MSoteyvRPWAVnb2nKmJj3oGtC1HKdM+KhsCDgIva9MP2KsLSpkEYJqBJWa0jBxxSgCRMrnbXS8OUTEQATgE7EupduT1SiVqA/BGjlImWV8Hua4Hkn2AXl1MyuzukOAfgvVd0hlRqmuf3yAPMjSl708ZIAJe0PVbVW6jDT7r4STvNyTnY+CFHKVMsvaBhKhygH3aZmxKLWUyeRpFkTKtP2VFS4PzrtR1QVLeOEQAkQqRV/8ccXrsqSReietGwVw3vuVKLlImWfte5lLnSPQHqpNKFUohZVRqKdO6vRF4orqny+iRXX8CWpDmDSDSVt5waLKGefNmJ8bgS4j6HKXMp3+P9+s9gVonHh9xcpo74m8p07r9LeB5uoUFad7KgkjJbQ/QcRn+7o2gD3KUMu2di16gOgfUPz7dtdOlDMWRMq3tz+C+13VnsiqVvimrhvf/XJE8rmzJs04lzxgZcPwHDR9xUOqq8x8Qn5hGUgWTVSWAWqCPA/T2i5RR4VKmffsz4MQU7eogyQ8KxdhYKygJkPr8nQiRxIsj9u7Zv1dMsaRHmdEY99rzKOK+26oEPXeDpBApg3+kTGsi7gT+gsToMcMIrPgDNygJ4GuIAAzGm96RBCIi5iomeLPANXZhRM8wUJtJyuQmVbKRMmSQMmm/oqwAA7wLeitARjklRM7HN0vsSPNGhzaTIYoCESfujlfjbUNZdKj5BCLgBUL3Y/c+wJ/a3Llnct1180Fsir/R8gq4ejWMqsPxjXdS0SZvLyQlJDIBKDtIZPRSgLcM58MAHqWBSJHiIusMvg+0kGT2lLzfOVmdybKUfTIHqIsPsOOAfwGOB/WpsLki2Zy/l8S+Gd64BdRMq72syOSFtP2VA4TD7K6KliUkspQyOUMiBymT/KM7tG+odqNNLU4oYIh/54rskPQ3M1reuK68JS+HzPsjwhY6uL2RvigxExhDq5hhZ8mrIsZoquLATPe+rXGQ1yaBRDbOhQFOGHC7iJRp3/5msxMiFlMAEXw8V8Q6J6f2lgcuATuHzHn0CYx1wAPAz4CjOy9GU/QY2MAMh+4EGoA+uUGkjeZxHVA0/U3i66xMKic2iry01rhuHWitgLkiZonFH51mb914Cg6hJhRZBEwDnilg4BYIgKJLpr0ytDcAu9JurZte6rgSMYf4Vn4VmJVJJ3WaQR8gdXuIFOv40s0VMVItLiunvXHDiXhKgOeB8/HKcmYrIfwUF2nfn76mkDNo9vJUbkCTRENaLyS9l+ICLY7EJ8XdnKqkE8za/GWpAaMWYFsAET+leVOcJ5+pMCWyt288BUcg41ngMnbvTFexEAGokxMLy9wkBxvIWti9L3BeRc0iQKMDfJJSyhSyhWYJpUxKiHwKmCZBY7ePjlTMdHP/fFNv3HgK5nVnCfB4hUMEoBZvrkcqi3hZm6ylTPvPiQANTvzJrZykjDpXymSACEATXiQ6iIuUWQLlDBHJdysY3rrhFOIP2AXx1GjJrk/pZ9FSbShkKfulKBDNQcq0f38LaKcD2tq6WUVP7ZZFyrQ/d5RWVbIDiHRuXKRyr6XWJo+VVNJUfIVEwslqb27i3W4OUqZ9+y5glwN8BLSUrgxiWaRMh4egn7R3d4ZIhv7ITJj574uKJ5PeB571B0SKH79Sa0bkX9TsY4kmB/GBRENeUiZvL6XoUqZ9t0LxSFIAEf9CxNf25vVDExmJvxRr4BbjO86+L2rjdqTAOJKZV7s5d4jEufAh0OAI3o+7J7lDQr6RMu0AoyrwcnldHyAVXhLA/7B5nZRTJDpX0mR5fCQhXVKYE3/wkmd95verqqqbE8HWjypcyrRvrxVUqxtgpJhPyk7b9sHfX9RHQEOFZGiSHd9Mq2BqxxiJWxV/8GYrZdq3vxOJNONI7AQ2VbiUad9eS1ZrJiocJAJXlV1VzPzvktRLNFcoRAAaMEVJHYeqYnep1ZyLmrmgNwHCTijWKNfZmD8kSrZWJj1A0rdX49WiDaw47nFJIAKA4VuYyCscGAW5FQoRgJ1OtCq2a8D7qdprgR6ZHiQpAFNPvERBWDEH4JWUkCiCF1ISKUPa9mrIuHw6gEiR4yJdRcu062eIDnP4K6ri2kduKMJHl89ICRKJurRSJvXnfSR5IHHiUuI1eZO4KlXKtI+VOKADDXH/skcCiJQBInnLK3O8H/9az9auvw8nnGWyD1KtZYoHVOuAXllKGdqFQDZKfIQ+LRrzJrsDrq0g4d+sDKkn4O0+9yGuLATBwj3fQqQybE9IPLE7vSRArtdUwLsZTt+P3UWNcq7P/KoTcndhn+aP3wXeqKCsTDZeyiEYvfywsjSASOqTmP/5MoR21cPK6Y0UuEapPjNItA+oOvMau6RS5y9yHZ1//tk4yCXaFNkJeqlypQzJvJRBSPt271IC+TzhSnWeFAe7/szcDJnzCGG3AeD4zpQ0BR6/E9iSrOH6629MnGN/4nOulNsau0+AFxP/cYYPO5lwTRjEn1IG3ssgZShIyigZYAYARwTeSDaDv/M2j3I9lvjwCjpEnZ57AV+s4O0s3hN8mOzoaFQ4VuU9cMlrecwmYMNukLR6y1/UJk6SJSQK8VJI0Z6flGnfkRrQ5+XC0mUPBRDxIUQkiCXPrfrlOp4AOrJCIQLwusROpRCVrhupljg4z6Jmf/N26dOnIInbG60JU/D8D+U1/6MQKdPhP4J/luPWuVK3h0ixji/2HjRm8l0Ya/Cc5YDVgCbjZW0qESJIvGxGZPPNI0nhb/RJeCRZSJn27c8gIpFIpC1I1Fj/MfB0a4hkI2XkHymTrP0Yww7qHgHXytzg2xx8tfp3wKRFiV6eDAyvYIi0gP6Sgfz7srvKfE71mT8WPCXgkku+8ylIRgw7CevRE9AapJaUAVd/S5mOABL7IP4FwbJlywKIFAiFkkzF95G3eOCch6nr1QvgYODHQN/SQIQcIZLPefQB8PcMhx6Kt9l4NlKmtXPxKvFJrG1iJK0G83PA2xUsZdq3OcDJmFsTc50uCpAKhki7e6cz7aCz/4DjJaP3BX4FfKmc4C9WKUp9OtZeAnsn2TFXX31DvHC/jvNSv+S6xm5tTY2zLSlIXIwYzibBUxUsZZIB5svIDqcbmt82+CaDl9tpMZF5DxFrDIPZkcANwKnlljRFhgjAOsltCDnhDseZGRI1JFLbuW010wA80dzscsEFZ3cEyajhJ+HgRoHH8GoYVKKUSda+n2CoMBbf/0A3hkh+T05/bfBdXDt47h85cM4jEKvqazWRGcC9wEiyDKr5KS7SDiI7gdVmxts3ddzXybxV1/sCR+dRxP0V4Ln273DafQIYa4E3KlTKJPdSxFhJ/eOrObspRORHiMjMyro/1v7nPMAXx7/KoLnLa2OKHebgnAW6D7gWOKbcnkgJIALeRLG/pXUCxTESB+SxUPfx888/+31rt71FW7/HBczeQe5K4IhCprlnai/ECyF3wPyTwTfwthjojiLHr57IEMmmA7GDzn6s/UGhTx90xemPBETp+UHfNwaZ7Ig4OPYHhXMDtb8yNEmOf0ymbU6SuODVV98AZkj6Km2m/mextS7sRCy/+qrruODCealBMnLEyTz48KOuwTLBVGi3vLh0y/4LgUQ27T2AqYb7hyVLljWceuqYIC7iDznzBeCmcvWnGMf7L83b4fitwCMm4535I1O9Zw/gqzl4IYmGP2M8l+wgJ8XbnsHbujCplCnTWplCpEyy9m+72FfdLjynxK9zRSoEahUWv0p5nlVKI2vidgy7N0rPGiISLJPLjmRDyOkYiDGEtgH3f/pN+jor0/Fwkrb3QczCpcd9ix8IIJJiUPmnbGMn1pAtoTdSgjRva2sE7jZoqq/v0+E9v/vdjbhuDOAk0B4Zy4W0nZj6FrAcgwsumJcZJCNHnJwAzoPIq8eYjZTpxKxMdlLHezEM41sBRAqFSDn+Jt9LCL9BBLyZ6SsAPl74jaR/g+OEBoBOae1sZLlr5kPhsDY4TvJ+JpU2Bjim14EH/SllyEbKJPNS+gDngfret3hZlwCIr0oCFFHSdDWIFOv4NBBpAm4GPrb0O+99GfhsjuVCPgLujUbNPf/8c7IHycgRQ4m5uIK7gQ/8J2WUjZRJFdD5tuA0BPfev7QrRkoqPA5RxAyNjyBSojRvm9iIwcMGvDN/VIfGq6+6HnmbiZ+G6JnjVjNPSPandNMnnHTXw8TzwPIKljLJ2msQFwgOspix4LbHAogEEKkIeZXm+O3AVRLbFXJSvtPgGMFJWUqZhO0C3W7mNqXrb0qQhC2EoAW4DbGtQqVMRy/GazsOOF8Qrq1rDCDShSBSrON9uJo3nd0NPI7BphtHdPRGrr6B2po+CMaze7VvWinT+oNXIlYhuOiiebmDZPjIk+IThW09aHkFS5lU751pMBRg0aKl3Q4ixTo+SPMWK+6Ut6R5Cfgt0LLpllEpodjUvPMw4PQspUy8TfV483x2mZt+2kTaJbFRc0Bus+CmNtXTKkvKpLpS/YR+ImmwDOZft57uYX5L8ypI8+YPkU+Aywx7RSmOufrq63n66X4Ak4DDspAyrRuekPfDBZfMyx8kp444OfF560lML69MKZO0HfEl4IfIauv6bw0gUjBEyjH4gzRvqxPNBxYLsfmW0SnP8c///PERwLQspUzikB2Caw12ZXNNMhbpiGGYaEFcj9hcwVKmo5fi2XTQtB01IRbet6zro0SlB1XlxiEqIs2bsEeB/wGaU0maq666Hkkh4CzQoblUPgQeNLMVmHHxxecWDpJTRw1FjhENhZ8H3VbBUiaVl9IT+Enf5ug3kFh03/1d1hsJ5opUBtSygMjfgB8A76aKXPz2qusBYcYJoKlZSpnEP1uA30lqdrMs8Z9V2bCxI4cSjkVc4EbBXytYyqRqP1Dol0iHuS7c0eVgEqR5K8kzynD8m8BFyP2rEwrzTgpvxADJegGXIAZmIWVat99qFn3WzOXii88pHkgAXBcwvQVcBTQXU8pQXinTETHeeU+Iu4p7hd0AIgFEfNmfzcBF0aj7pJnDxhuHJfdGfntdonjRBMSIHPejeh64QQq7F154Xtb9zhok48YOJz6z7V7EI8WUMpkgUmQp0/bdbdvGAv9uotfChfcHEPEpRConRlPU+NVG4DsWtQfDISelJ3LVFb/HDCSOBr6rpNuNpgy4NgJXAG+bhXLqe04VkceOHg7iE+DXoM3ZQMSnUiYZRBLXY7ZMP5BUe8/CJRUNkWIdXxlzRTrpKpcnQ/MqMC+0r7NU1dKm+aNSnycUQq71FvxI8JkspUzC7o//cOGFc0sHksTFCZmeFlztbZRWsVImVXs14hKMC81UvbAiYVK8NG9xji/HU7vLpnmfBmaEW7Q89p7YdFNqiPz2t9d54RHTbOC0LKVMohOvI/0KUX/RRefk/L3kDJKxY0YQ9cbqTcAfK1zKdLy5vPaewI8lO88VVXffs6QLQ6T0AAhKAuQFkQhwDzDN0NMt1SE23Twy5XmuvPJazAzQicD3gZospEyiE83A5TFHL1ieX3hem71Ut7SA+Ajxn8A7hUuZTBApmZRp5aV0aOwF/LsZF8ncmrsXLq4clPgoLhLMFckLIh8APwfNAza8c8tottwyIuV5rrnm9/EtJvQZvITBvllKmUQn7jPsjrBrXHjJueUDyYgzxoFjcND+60H/C2opTMqoM6VMuu++t6Sfmex7yHr43zMJ5opUEtSSHB8DVgKTMH6J2Y5Uk81aWzTqAOwD/BL4XJZSJtH+EnCZ0K4LLz437zsv7+3nxo0eDm9uBtkt8vYDqWQpk+7GqwN+BPoxpt533bOYBx98IIBImfrTjdK8G4GfABPk8qRBbNPNmSESj4v0Af4Tb08espoG79l24N9d13nZnMI0bEH7WI4bOwKZPkH8R3y7z4qQMiSXMm2+5HbtPYDvIX5jMHBXfYS77lriC3js9viCNG8FQaTNfz/C291vNOb+EvTB5ltH8U4WELnyyusB6+E96JgJODlsahcTXCtsqTkilzkjRQcJgBs1zNFrwP8D3qsEKSPlddNVIWZJukHS4bIYd9+9xCcg6ZoQ6eIlAbYCtwFjEecjXth08xh3U4rFdyk8kVrQ94ALQVUZt9ZtK3UeBq4ARbKdvVpSkJx++ghcFyQ9BvofQVMlSpkkXkjHdmTAKOA2w76KI7vrnvs63x/xTZo3KAmQ4W+KgV7Hqx8yyoy5Bms3zR/Vkm5uSHu76qrrMKPWTN8DfgCqzVLKJNr/CvxIsg+rqmJFuc5F2+Rl8f0Pgqknsl8hzukIKRUnVkKe7crzZlOHfFRrTfszye42aJ48+bSyg+Sgcx4HOMnEUryUdd43fJChKRlEBGyTeBZ4EPQosjcx3E23jMz5O/c8EasD/RC4FKlH+qHTIeD6HjDLjOWuC5dccq6/QAKweMmDGOwjuDH+5M4eEgVImbReCFkFVHOFSCKetQt0LfBrxFZCLlMmTqg4kAQQKXp/WuID9q/AKmCV6/JyqDpaH62vZcsdQ/MAyPWJz+wH/Aw0D3lzRXLYWrce+K7jhK6XXOUz8SyVhYt6ZyuEnNj7iO8DA0FfLBgShUqZPG+0LAHjra6EYzF+JsL/d+fd92nKpNPxlwVp3hL2pwnYgTf34604PJ7HW+q/cePckU2DbniIzfNH5v3teUFVF7ADgf/GW4wXzhEiEeAqM+a7bkwXX3xuUe+wou9fuWTJA8QQhv0LcCtwWBeRMpna30b8j9ACoH7qlPE+8UiCNG+J+/MPvKDpQ0ivmBHZePOoon3H11xzM6++8jIHH3LY54DLkb6ZGLdZSpnEf+fHH3o7ig2RkoAE4N7F9xNSLXIioxDX0aZydUVLmXQdQ9AIWgT8KmT2sitpSgmBkhkk3StD00lyRsAuvIldy4GHhb2ES5NTJTbeUIAn8tvrQITNGAP6L8QROXohCXsAODsut6gYkAAsWrIMhWVOxJmMF6Xu728pkwkSSntvtWt/DfhfxF2CT0IGk0sAlPQgCSBSXIhk1SfhpXXXSboPeNJk72FKuew/mV177S00Nzdh5uwJOh+4ENEvT4isQJyF8QYyLr7knJKM95KBBOC+xQ8gCBmaK28NQJ8uJGXSeymiGW/L018j/gzEpk0bXyaQdL+5Ij5ciNcCvAgsAu438ZrAzZTmvfrq63Ecx6LR2OeBnyENhczxkBSX8RlgNvDSxZecW8qhXlqQACxavBSgCuzc+CK/3l1IyqSCSKt/tAW4xeBGN+puDNWEmDJpfAlBkmuatxxzRbr1al4XeBu4D1hgppcFsU03d5x4dtVV1yHRB5gGuhRxUJ5eCEjPAWcZzvNRN8J3v3tBZYMEdm9AVY3ZhcBP8bIdJZUymaVOUaVMJsC4wAuI34ItBXeHWTVTp55aVpAEad6yQ6T9iTYBdwI3OVS97hJl0y0jueqqawEcyU7Am2A2NI/Ubqtf6Pl4TORZk7jo0u+UfIw75QDJGWeMBcdaMH6Ltzz6kzKvlUly8+UHEaWCiNJ6KQ7in4DrhBYJxsUUqbttwcIiX+kAIvlenxJDJPHQPtADBQ+4RGZLbt2QWUuR7ADJfgosRhqTDUSUGiLPAXORnsWsLBApm0fyqcxZhplVu657LuLnQN8uKGXStO1+VQ/8AbjWxHpB4/TpEwv0SNSzEuIi3bRoc7J3NAH3jh2y7S9H7NE01ZWOR96DPU8pA/B/wDmg54RTtFmrvgMJwL2LlgIKg50JXAYM6IJSJlvAbAceE9wMWgs0zJg+KQ+QqJW08S9EAs+ow/m1T48I39pvhw2qa85UfCidlAFYDZyHeBHHSpLi9RVIWsVMQoIJwK9A+5csK1MqLyUdJLL0Ulq17wSeAOYjVsVi7KyuhqlTJ2UAyR+TxEgqCiIN8exGLoPWwSvrUOUPiBQmmSToUx3jX/fbwWF9G9NKmeSnkfDmr1wEvCYTl1z8nbKP6U4BScIzCYVCFotFh0pcCRxeVimTlZdSNCmTXbuoB54B7hIsN9d9F8c0Y8bknEFSARBxgR8jdzkQyuETqoFBwFBgNLBnrn0qU3A16/O7gt5VMU4+YDuH9mlqxYeMUiaGV9f1B5g2x2JVfPe7Z3fKeO40kADcffd9VPfpS7R+15eBK4EvdbqUKZWX0tELSdceAb3sBd94QOIfjuM0R6MRZs+elhEkFbJ9hAuaDCx8O8VGT6nsgNmPYFBlxonAL9hdXrDyIJLojwR71kYZMWgb+/Vs+fT3qaVME3Atxi8Q2yLA9y85r9PGcqeCBOCO+x+iuiWCaxxu8L/AcJDjOylTKogkfdlmH9T38VaQLhGswol8gEI6c8bUkoKkDHEIF8gLJAAHzX6UiBPBkXMk8Bvg5Lb3c6fuzZsX1CQ4qHcTIwZto2fYTQeRjwX/LXEN0HDpped19jAuT/o3nU0dNxKZi3mbAJ0ldJ1EU96QyOCl5O1pFEHqZIaI2r/BgIHABMHtoOW44V/g2tfnz7+z764Wp+PHdcFgZjJ78+ZTcOSA8XdgDvGNnSoVIgBm8PauWv66rS55hTPvt28KznWl34B8ARFfgARgwvjTCL29DknvI74H/Bj4MFcpkxYSWc0dUUrAJG1XmnYlA0wmiCRvi7fXAP+E+BHeIqwHr/j6uz/43N6NxyaexBVYEqAgj3jjTcPZeONw8LZEuRhYWakQaR04emFbHVubqj5d4vvpG9YLpr6yad97jFD00ku/g1/M8UtHTv/e5UyccCpAg9CVeGsEXkwApGQTzModD1GuXkqHDwNv/s3XYrLLPrNn83+GHdV2xbki2VqspQpwN4J+hFcTpET9Kf0sWkPsaAnx4raeuJ+Cq0WwQNgUxPrPDHqXSy89Bz+Zg8/Mg4nFHLkPAJMkPQBEu4mUSd/e0UtxDPWISyBfQKR4x2dvm28/CWSEqkJP4S0ObSo2REo/Fb+tvbqjBx82hTHjQ8FPBd8BvXXJpedx8UXn+W3Y+g8kAJMmnMr4iacj6UUgMXHt424mZUh/mvRLDDoLIjl6RkWjy8abRxCLxADuSMRLSrR9RIlMbfTeJ5EQz37Ye0vEtdl9qmOXG+y85JLz8KuF8bFNmngad9+zeBve5j/PAz8HjiskKwOdIGVSSZXspUxyiFhFQ6TgGEl7q+5dTcsnLfXAryROAA4ueHiXIS6S6vwvf9zT+du2undDptjm+WP8PFT96ZG0h4mwqOPGlgKnS7oVaMxXyqiypUzrjnYCRDr7qZ3eNvzmJBo/qWGv/bf/RXCNkkpiVQRE4jYwZJpjqGr/M5f6epyGqQCbPNFbbn/X3fdtAM4D1uKtojwsoxeShadRhglmxfFC0n9MGQZ/cYOrAuXyJLvlljsIhx127WoMSVR7mSzV4G1ZuQfQX3pzoMF+O/o2H/PAW/0im3ZVh80qEiIJGyfsDry1NL41o8LsnoWL6FEbob6h+hjg3xDjxKd7e3RpKdOuzTHYsL2aRa/uQcTNFSKdPlfEPahP849nHbl1eUPUqQZzXCmEqMabBl/r/ahnHBR9gD4SveOv+3k/2gNvf+YeiF7xKfTmGLyyvZYH3+pHxLVKhUjiPHeCzgKattw6NgBJseze+x8k0tCCmdUJ9zTQ94GjiwKJHKRM4ZAoDDCOqRVILKebvrPTvAaMHLL9k8/2b2hxvayTI28ZfTj+E8Lb2TDxk7a6W7K+RF14ZGM/Xt7WA7NcBq7viiXtwFvg+qhfQeJUIkjGjxvFlCmnIUXrew/sczswDvgdsC1bKVOerEymeAfpszLZeCl5yBO/pHkdU2+gP7CnxB5xT6On55EoFL8/rdW2tSS7aMkBI6oc8fkBu6irimXdK/9BBPDmDZ0N1O03c2kAkmLblCnjGf2vJwO8BroEMRnxhFCkbPGQ4kwwywgJZZA65YZI8Yo25wOJVpchg5eyb10LR/VrKFHMqHSmjnu2nAyc6NexWNEg2Q2UyWeALOKiR4Um4E2X/jtJkx2lzMpk8jTyy8qo/cjpAhBR0v4ow+e0hYTSfJGJdgc4tn8De1Sn90r8FBdR8o2f6oB5QF8/eiVdAiSed3IG06aMxzE+qgnbNXi1Ki5HbOlSUiY/J9l/ad5MkMhDyiS7TAIG1Eb4zB6NFQGRDMd/ExgeeCRlsMmTx3PGhDOQqw24+jfBWNCttJsZ63cpUzyI4PPtI4onZUjhpRhwZL8GeieJlfgwQ5Pu+FpgLmb995u5LABJOWzatAlMnTYhJtxnheYBp+FtVrSrEqSM0kgZ5UAIP9c3VQ5ShiylTLJ2yfNKDuvb1PaUlQWRhH3FqzTv0nveIwFIymXTp04khJrBVgAzERMFS4U+qUQp0xEiKrU7XfqFb1lIGWUpZZJo1t1zbo7u10BdldtqZX7FQQS8WrVzMRvYu6klAElZ4ydTJzFt6nhiURqEHpaYCkwClgA7sp2l6hspk5WXUQHbRygVJAqTMskusQT79GjhoN5NlQyRhH0BON2Rsc+sxb4YY2G6kc2cOSHxsv62Bfc8bNiTSF8GZgqGAQNKMZW9EC8kv1iJv0oCZC+vcoMEObaHTRzTr57XdtTSHPPHXMw8g9ch0GzXtCzkOu8EHkkn2oxpE5k+bUIj8CTYHGAkXkGlNwG3oHhHqaRMmSFSvrKNmaRMJkh0lDLJ2l3Bfj1bGNyrKV40qHO9kRRp3mz7cywwybUY+89YFoCk02Mo0ycyffqEZsN9BvRdYFi8nOGzgma/Spnk96D/Jpzl7IXkkNpNJ2VIcu0FVIXEMXs2UBNSJUMkMXZnmhs61MUNQOIfoExmxvTJsZATfqVXz16/BEYAM0CLgA8S2xFnK2WKkpVJPrJSZm38NlckszdSnKxMWqnT7utxBQf2auaAuuYsvJJOmSuS9fESRwJT6yLG/tPvD0DiJ5s69QxOO2MUQlsFC4VNQwzHK670Z6CxVFKGLKRMaohU6DaWKp2USeWl1Doux/RroMpRp0CkWMHeuE2rr9JRbieHfCxAR2a79da7wMUIMUDiX0BjgK8jBtMqYF20oGlGKeP9zzF4fUc1izb0IxKzioKIt/p3G0f3a2znGRQh4Kr0MSQTNMYclr7Vn427ajCrPIi068+vMX6IcN+9bVynjJFwgInMNnPm5MS3ufWWWxcsA3sY2SCDr8cl0AmC/eIrVoualUknZdpxpbI8kaSnLiwrkxEi8b65QG3Y5ch+DZFNDTWhePmCSoUIwCTE3XjlSANpUwk2a+Y0Zs2cGg2HeKMl4twKTBWchDd79j7EW0Ck1FKmmBAp1vE5yysrj5RpHWsS1McH3JV7VEdnGvylHNenxPGrA4DZYOF9ZywNPJJKsunTpyReNt90212vhBqaXnFrahYYHIi3h/G3BScAQ0B1xZAy7dut4tK8yc5fcinjIrYBL8kr0blSsr/WhNwPH3hzgOuKvYDjUz1UiwGAImRosunL6eDeCTwVxEi6gN1++z20RKKYWQi0N+hoxFeArwBHAftoN8DzlDLxF46J13fUcN+GfhkqpOW8wXeOT1vlcePp0xiJW3Qp0wC8DXoOsQ54RrAhGnN3Oo5xycXneo/xWQ8CDAIeBh1TCklTJogkjp8v0zxEy3u3nRZ4JJXtqUxMvIwB795884J3QY+D1QEHynv6nQA6HnEEsFfieyjUSymSm0wpN7NqD4hMXkhqf6zNe+uBzcDLwDPAn0B/l6v3DaIXxsGRvB/aCHYP8ItSxEXKCBGAMSZbAKwIPJIubjdcfysS5oScOjMGA0cCxwv+CTgcsTeod4oIQpKsTSaPxEfB1VbnN2Dk4G0clSprk9oLiSI+BjbKK171Qjzm8QqwNRTq2RyLfcKFF2a3mdQBsx4AONzzSji0mBDppDU9C/E2lWt897ZTA5B0F7v+lhuZe8NZ3DRnQS1iANKQuAQ6FjhUcBCwN6L37qxQ3ByDDTtqWJwSJP6ESOLGGzG4ffq3A0SagJ3AFuAN0IuIl4FXMN5xZduRYly4JxfZ+Lyu//6zHiAaraIqHLkM+LcKhwjx6zUJeOTY5rU8es8VAUi6q91003yqnCgtbnUPif6IA0FDgEPw9vIZAgw0o/+G7TW9lrzer6YjSPwLkXYgibmiEbQT8QGwRd5G4BuA1/DWPn3gOLa9oaElcvjhezN27PiiXu+4V3KsxEN4wfJKhUjCHgCbCvqkXF5JAJJKkUQ33IpkmMkB6gR9e4bdfsve2GPkc1vrfu56+8FUBEQSv/zCXrsWnHzAx8sjrr0HbEF8LLGzReHmkONy8QVzynJt95v5IBIhx9FvgPPLD5GC4iLJrAGYjlgcrY6x9aYzApAEltqGzH0U4CRgKd42Dvg3zduhL66wKQ66Z+PNIzr9Wu5/5gPgpe0fAPbJ5xqVOUOTyR6XGA98/N7tpfdKgglpXcr8sJo3+wFnyPyyA0R8F67ngUe6AESQ+BowAhn7zL4jAElgxRu4hZ+n1Lq/8yzkGvJmJN/O7kLhFQsRgBrQ2VhsL4v0CEASWMESwjdxEb9CBODt20aBGZg9DTzu47kiuUDtBLBxmNhv8rIAJIGlu7lEhQRX/X81XUBuE+g2YFf2A7e80MnBM6oC5uA6+7nhaACSwIopZzotuOp723LrqMTLVfGfskCkxFPx/wnTeAH7Titd8aMAJAFEOhEiPqSLl8fcFY+VNHUuRAr9vgEIAbMMBstKV5IxAEm3kkF+hIi/YLL5ljGJl38Eni6ld1WsuEgWxx8DTAlRxcBp9wUgCSzfm7PUEMl3oPjTNs8fA17m5nZa1ZbJICFyGuQlCq6m87NmxIgcnqQcXACSwPwycEtdJLnT7BFaVR2rUIgk7HBgurmO7Tt9SQCSwHKFiN/SvJUBEfP6+T5wB15JiEqGSMKmyokdrRJsXxGApNLDHqqkNG/laJ1N88cmXi4FXi5GcLWTIQJoMDDLsNC+04sbKwlAUuFeSJChKZ05QEvMfUfibh/PFcn1/BOEjlcJrlVgXdJVCSBSqL0zfwxVjhHfJO210kjPckCkje0nmBOTqvaetigASWABRMphhqitqt8ALMr3GnV+9qrtvsqIUx3sBMPodfIfA5AE5neIVL5tvnUcTZE6gHuAjcWHSHkXBsZtL2CuRE3PfXYEIAnMB+jqGmnezJ6J9BJe4LViIdKuP6PM+JoBA7xaLAFIAuscb6S7QGTLrWORmQvciZcSrnSIAOwBzMPoGYq1BCAJ4KEAIuXwSBBmeh6v2nylQyRhJyO+DbD35CUBSAIrL0SKe3xl2OZbxyFZovDRtlJfnyJlaDJBrTcwD6mPhWIBSAIrL0SKN3el0gK1BtgzeAv68hm4xRj8WX9n2Z1H3wKGghg4fXEAksAqDSL5ybLOtGo3BqgJuA34pBSSRiqON5glRAB6APPA2bOQxZoBSAKIdIonUon21u2nJv7WNaBVxYZIsY7PASIJ+wpotBD75jlJLQBJAJGyDn4Vad/iTruesTCYuyvulTQWEyJFniuSy/HVwFyDffJdzheAJLCMN2UJt7GsuH2V3l0wKrH/8uPAUxWUocl0/i8CpwkxcOriACSBFVfSdO5euP40FweJ7RILaFf4qEIhAhAGzjLsgHxKMgYgCSBScne6K0EE4L1bxyacqUeAP1cGRLKy4yQmmsTeOZZkDEASQIRSBle7GkTa2Qd0KHyUD0QK/b6LA34JBzjTxQ7OtXMBSAKIlAwi+R1fGfbubeMSL5cBLxY2+MuaocnUn6NAUz847m32mr4wAEkAkc6HiLrysuDd18k2AXd/enF8nebNFmrT935h0GfMNUY9/fcAJAFEigmRUrjblW3v3T4ucR0XA6+VMy5SQogAHAKcaeY4z/wuO2crHAzBircI4mOguVAdkUWGxs3+PBm74sb7XNHmOuLjXtUb+u9suQu4hAzTdePXOI/FAcX3dNLIKwc4Bdedb8Y/vDYLQNKF/RCAvwqmoFy9S8vy9vPGhXkvYpbhrlKb01uGzusVZBX9Dbw//1T2nbEE4FrQunRefnxtkcyI5U4Ga3uNrUDoqP0pLNkh2yzLbv5/QNGZSeNilXQAAABGdEVYdGNvbW1lbnQARmlsZSBzb3VyY2U6IGh0dHBzOi8vY29tbW9ucy53aWtpbWVkaWEub3JnL3dpa2kvRmlsZTpSbG9nby5wbmcW6PqPAAAAJXRFWHRkYXRlOmNyZWF0ZQAyMDE2LTAzLTA2VDAxOjIyOjUyKzAwOjAwpj9FNgAAACV0RVh0ZGF0ZTptb2RpZnkAMjAxNi0wMy0wNlQwMToyMjo1MiswMDowMNdi/YoAAABHdEVYdHNvZnR3YXJlAEltYWdlTWFnaWNrIDYuNy43LTEwIDIwMTQtMDMtMDYgUTE2IGh0dHA6Ly93d3cuaW1hZ2VtYWdpY2sub3Jnb5+iogAAABh0RVh0VGh1bWI6OkRvY3VtZW50OjpQYWdlcwAxp/+7LwAAABh0RVh0VGh1bWI6OkltYWdlOjpoZWlnaHQANzAwNEHUUgAAABd0RVh0VGh1bWI6OkltYWdlOjpXaWR0aAA4MDDjscDiAAAAGXRFWHRUaHVtYjo6TWltZXR5cGUAaW1hZ2UvcG5nP7JWTgAAABd0RVh0VGh1bWI6Ok1UaW1lADE0NTcyMjczNzKoaORvAAAAE3RFWHRUaHVtYjo6U2l6ZQA0MC45S0JCvV2qlAAAAABJRU5ErkJggg==;" vertex="1" parent="1">
          <mxGeometry x="-150" y="795" width="102.75" height="90" as="geometry" />
        </mxCell>
        <mxCell id="kmKOHBo_5ijxBkN7VlWp-7" value="" style="shape=image;verticalLabelPosition=bottom;labelBackgroundColor=default;verticalAlign=top;aspect=fixed;imageAspect=0;image=data:image/png,iVBORw0KGgoAAAANSUhEUgAAAbYAAAHhCAYAAAACgps/AAAABGdBTUEAALGPC/xhBQAAACBjSFJNAAB6JgAAgIQAAPoAAACA6AAAdTAAAOpgAAA6mAAAF3CculE8AAAABmJLR0QA/wD/AP+gvaeTAAAAB3RJTUUH6AcSByo7pdxDwgAAYEBJREFUeNrtnXm8HGWV93+nuu+SDQJEILKJimDCprgBgwZlkdU1GUBcRkcWGVRwmxn15bqzg7jz+sqMzuiMmdFxQ2RLAll0ICKOiTKAgCEJELasN/d2d533j9y61K1bez3VXcvv9zFyu7u6uqqep873Oec5dR4BRZVM84d+2P903667NKSziwV7F1utmQLdxQZ2EdgzFdhFYO0C6C4QzAAA7WAKLAwCAFRnAGiO7W4XqALQPoVMH3vPBrAR0B2vFABkC6AtHT8KbQmwBQrYwLMCbAKwSaGbAGwS0U22Lc9aIhsVuslS2aywN2mzuXF46tYnVly8YJgtSVH5SHgJqKLoiG/d3bfbhqf2RBP7wMbzxZK9oNgHsJ8PYB+o7AVgD0CnjuPFvQOd9I7rbQ34VXX+F/jZ5N9Snx/f8Yb6Hpjn2wpAsFEg62zYj1kqayF4XG1dC8Xj0pBHbbSeAOxHFw8t2MKeQVEEG1VgHXfpLTs3VV4CsQ9UlYNE9EAA+wHYG8AeUFgeRASCq7RQQ8CGE3Y9/v/bBFijigdFcD9svV8s+wGxGw/YzZmPLB46ts1eRVEEG5W3VOWUS2/b3xY5UC37IAt6oEIOhOJAVcyONuxBUPOa/SxQ2/GZGai5jtkg1GKcewvAQ1B9QAX/C5UHGpb9QMuS+5cOvfUhQJSdkSLYKCqhhoaGrJXTj3xJR62X27YcIYKXw8bLIdgpnWEn1JKd++TvjF2SjYD+VgR3q427myK/uf0Lb3uEPZYi2CjKo3lDi6ZPmW4fA8XrRHEUoIcrdiRoZDfsJqEWQKFUUJv8WXqoeTZWn32FnGNGqN+vqjdZwC+39A8uWTl02jb2aIpgo+oHsq8tmj51a+evVGSeqL4OkFfguYzCHnsrvYVa8Lyaen8yA9Rzm1PcDsGtAv0Xq2/rTxYP/c129naKYKMqq9OvvXWPVktOF1hvAezXAxgoXgguBdQKmyzS8/DrRlX8h2Xrd++4bMGdnJujCDaqEjrt0lv2tZvN+VB9swJHATuyE/MOwSkCQFSbDMjCzSn+XqFXPzsgP1g1tGCUdwZFsFGl0ryhRc0Z03GqKs5R6IkArBqE4DJCrTbh13VQXDeo8s1bL1uwkXcLRbBRxffOGs1zIHgvoLPprRBqQecvwFMAvjB964yv//IrJ4/w7qEINqpQOvnK2/azpHGxqp4LYIAhuDJBrdeeqq4B8Pmlg3/6NoaGbN5NFMFG9dZDu2LJ/rZlfxKKdwHoS2nYcqmsUQRvpStp/bGgXoo5xV8D9t8uu+ysVbyzKIKN6rrmDS0anDYNn4Lg488BrYzeShehlgjqRZ1TzN1THYHqF7Y/u+nSldef2+KdRhFsVJe8tNteb4v1TQAH5GDYugi1QnkrGc+/cuHXe9W237P8inf8jnccRbBRuemEK341rV/6vqKQ90xuX4bgCDXjbb9dVC9cdsVZ3+bdRxFslHG96aol+3TU/rECRyQ2bIkMe21DcF30VIs/p+g5/++NTJ1+Hst0UQQbZUynXLPoOOng3wDsRm+FUAsbtKRv+8gBzb3o6JuWX/UOFlumeiqLl6ACULtq0dli4yZCrVdQgxmoRUoTvg+DUEMcL/0wNGTp0Z/4/lzelRTBRqWH2pVL3irADVA0zBl2U1CDQajBINSQCWrZgaMhb5d+TnFvtXHnaz72L0fz7qQINiqxTrv69jdZov8GRZMhuO6BKLunCoOeqslSYcYGNLsI5OYjP/b9N/IupXohzrGVFWrX3PFyte1lUB3sbQguZmFjpvWnhHqp5xSHLdgnLrvinXfyjqUINipUp1+2dIbdaN8F6IGsrFFlqKX0VHu0WGrArOEmhX3sr694529551LdEkORJZTdbH8zLtRCQZT6/bSG3RTUUNQQXHmhlqXtw95X7CSKm47++PcO5J1LEWyUr069asm7AD0r7vY5Z8Hl6K0wrT+3QUiI15VP28vzbFt+cvTH/98M3sEUwUZN0Pyrl08B7M9zXimpt4Kep/UnU5rwK4re9gfa9sD3AOX0B0WwUc9pWEc+AcU+TOtPAjUtRFp/decU47e9Am96zUe+/2HeyVTe4uipJDrxmjtm93U69yswzQzUWFmj2p5qYdu+JYp5K65+53Le1RQ9tpqr2bHPSwY1GDRsSG3YkqnXlTUItXyhBgDoU8EN84ZuGORdTeVmL3kJiq8jvnV3HzZv+dtkUMslBLdVgOUAfm8LHhJgI1RGbOgulmB3VZ0DyJGAvsB3rzUNwcXzVE1BLf8BTfpByPhnL9m+qfkJAJ/h3U3lIYYiS6BTrlo8H6o/jLKwORn2lor8CLb8004jT9++cGjBaNTxnvzFX7ykg8Y7FPI+QPeitxIFtfzT+gu4UsOIoHH4iqvO+hPvcIpgqyPYrlx0E4ATu+ytKFS/azf1Mzd/7MSH0hz3SdfdONDZ0nivqH5WobMItQRQq0dVlUW/ufpdr+cdThFsNdPply2d0Wm0NgAY6JphUzxiif2uG//+xDtMnMMbvnjrbg1tfRXAGb3wVnKurMGqKumgBgCwYR1319Vn38Y7nTIpJo8UXLbVPi4b1BKn9d/WUjnCFNQA4LZ/PO6pmz950pmAfhBAp9shuEB4BLuK8d8vNNSK/0iHBeU8G0Ww1U1q6SnZDFsCb0XxU5naOuW2fzzuqTzO5eZPnvwVVZwJRTt1BmRCEHWnqoopqMEw1MoQftWjX/2R7x3PO50i2GpFNhwX7a1kN2wKuWP7SPOvf/nBk0fyPJ1bPnXSQhE9N9C/YFWVHkENBqGWcBCi+n94o1MmxTm2Auuk6+54njXaeSJzcdvoLLi1fc3m4T/76LFPduvcTvjCjdep4sJ8oFbvDMhSrtQgjbm/uers1bzrKXpsVR91tDtHdKO4raq8p5tQA4DGDHwMwOoIG02oFXKlBpNQG9vAbr+XdzxFsNUBbIojgjllKgSn//arfzju1m6f2y8/ePKIOB5btSprGARO4BmkaHskPP9uzSnu+CUFzj7inG/18a6nCLaqS+3Dc55X6nQs9Gx+4+ZPn3y7qN5amMoapj0fMK0//pyi7NGcNngyb3qKYKs82GT/ZN5KYsP2k1s+fsL9vTzFjo3Lk0GtWiE4rtTg7u44nTc9RbBVXy+Ib9iSh+AE+k+9PsFj9K7bAKxJ5EVVKARnBmoVmVNUPYG3PEWwVVjzv7ZoOoDdcgzBbZ2+feOven2eQ0NDtih+nN6wc7HUFG2fCmoJww0pPGjsfcRHbjiIdz9FsFVUW4Y7++ZZWUOA5XEKGndDtsii9N6KKajBINRgGGr1WSy10QEf1qYItqqqoY3d4xidDCG4e4pyrip6DxdLNQ8iM56qKagh3pyiWMfw7qcItoqqI5gZbtizheBsxf1FOdfXtu9aA8VwvlCDGahFYzqFBw2D4VeTUOtB+FX1pbz7KYKtqrJ11zxDcJbqk0U51aGhIRvAMxGnkwhqpj2fbIa9Dmn9yA61Hf95ybyhRVwAmSLYqiixsLM5b8XHsIlsK9gpbzEJouoWNjYFNRiGmrFSYf3bNv3lhbQAFMFWRanunGsITjFYsDMerHUILhbUSrhYavKOD7ujzIykCLZqgs29BlsWqAWYVcueWazTxS7poVaJEFxok+U6p5gRRGFuahqoC3QPGgCKYKsk19CMbUDiGh23YbetFxXlXN/whZ/sAWBGzUNwiLVSQ9q2D6cmirVYquxEC0ARbBWUAH3xvBWk81YsPbQw52o3DqlaWn8uIKrNYqk2wUYRbNUkm/ZFQy1DCM7Ga4eGhgrR/qo41hzUkBpqiX3qkPfjrDbDqir+564q02kAKIKtilKrEW57M4bgBLuu6H/N0YU4VdHT61JZozdQg0GowSDU/N8QhiIpgq2iXIMtuYfgFO/q9Xm+fuhnLxfFwfFBNMmWZvRWTEENBU7rL/AK4H7BCti0SxTBVnHCxTRsSG7YBGef+IWbZve0AzbkowzBJfdUu7lYal5p/UHnaPOupwi2ekItvnEJfX8Qgo/36vROGPr5wWrrgnJADQahBoNQQ5TrmRBEKfpRHuFXiiLY6kc5gyG4vzvu0l8c0v3TUemI/TUAjRDuZPRWTEIt/7R+kyDSUqT1Z/f7KIpgK7W3ZhJqEwx707IbPzht6GdTu3l6b/jczz8GyGuzeSvlrKyBKBTVJq0/TttTFMFWecrlFIKbO9rf/DZUpStQ+8xPjofi89mghvhQywlE1S9s3Os5RYoi2Ag1pA/BqeLME75007V5w+0Nn/3ZkYD1n/A8gJ4cRGWurBHaPF1v+4jLZQBqINQogo3KYtgyhOAUHzzhCzfdcNJ1Nw7kArXP/fRUKG4BMCOetwKD3oopqKFLIbhyp/WnHoRQFMFWR6ghvmFLY0AE725vlqXHf+5nB5g6k5Ouu3Hg9Z/92Zdgy08BTIsHNab1Z2r7FGn9JkFkaqUGiiLYaga8yPfTh+BeAWn8/vjP3fjZ4y69ZeesXtros517RfH3ACQfqMEg1GAQajAMNUOLpSIN1Ls/p0hRacWVaouOsd6F4AYh+LS0Wxee8Pkbvy229U+/+j9vXBXnmI+79Jad7dHR+SL2+VC8nJU1cgBRZNubnFNE1+cUKYpgI9QMGXZfwzJTgY+qdD563Od+8RBEFylklQAPWiqbVTGiak+HYC+BHGirHqWjI68WaN9Y2S4D3kq+lTWyASdiXz1bLNUk1LobfrXJN4pgqyjUYo3WYRBqiGPY9ofK/k480XaKH4nzWicEG3OZVzLt+aCshY2LOqfYrbanqGBxjq1kiGMILsqwlzsEV/45RYW5lRooimAj1EINW9jeGYIzY9hrktZv1IMGvTWKYCPjDHk+kdaEIbjSp/UnHTjFBVHubc/6/hTBVjO+sbKGOW/FFNSQCWrZgRO53kyP2t7AgIaiCLZqe2usrFGVEFxuKzUUrO0JNYpgo1JDjSG4coXgTEKtooulUhTBVnWowaBhg0HDBsNQYwguX6gVue1d4hQbRbBVVHZKb6XQxW1NpvUHvGRaf25t3+3FUimKYKusw1bN4rYMwcWBWn0XS6Uogq3iaMs6+mUIriSVNbhY6sRwBUURbFWTjZDht0HDzrT+ZFDT3qT1F/qRjpxXaqAogq0ezhtDcHGhVtTKGpxTTOapUhTBVlGo1TAEl2k1yqJW1uCcIqFGEWyEGmobgvM3sRkMe4lCcFVP60/h9VIUwVZrqDEEF8N+Z/RWTEKtwCs15JXWH9b2FEWwVVB2iGFLPfplCI5p/Wb6Ua6PdFAUwVYLly3IiiUw7KysUbQ5RRPecOwBTenanqIItvrgjWn9yb2VglbW4EoNhBpFsNVMtkGoMQRnyvMp32Kp5VypgaIIttp7ajAINRg0bIhv2HICEauq9ApqCdo+00oNFEWwlcxfy+it5JHWnwhEVamswcVSk0PNZIFsiiLYKui2mQzBZQQRQ3AZoVbgtP68+lHatqcogq221EvorYAhuNJALWXbp+1HRVqpgaIyqMlLUEwNtNoX2QPy95D8fmPjhFdBPyRJd9Ql5fyj2vyzis5MBjXTIKrzIx0URbBVTj8bOm0bgG28Er3RX/39v2lmEEUadq7UEPfcKSqJGIqkqGjb679NoeYUq/tIB0URbBRlnG5pDTsXS008WqAogo2iigq1aDeQKzXQW6MINorqOeXqt1iqen8yo6dKqFEEG0UVFGowA7XkrmMMeMFgBqRJqHFejSLYKKowUDPt+cTz1upZKoyiCDaK6gLUuFhq1LnDCNSIOYpgo6huII5VVWJAzeScIkURbBRVIajBINRgEGqID7VM/hfJRhFsFNVjqMEw1LhSA0VlVeVLas0bWtScMdh+fgvY12o09hVb97EFewE6INAZUGkqMFPUKYr43M01YekYz6vUhi3KUNh2qG2xExm3YENhB5zWhDfCDLsdZSTDdmP7H0+YYQu7Lgg590Teiu3myPR4UOvlYqk1Wakhqs3XXzwfIucUzPSMQGQb1H4WkG1Q2QTLfgBq3YeR5v/Kfpc+Q/wQbLF0+mVLZ4w2WodZwBFq6xwRnQu1X9mB1W85o15xGR19rsCv+33/+0zMGJ3Im1sCwWUyC04CPott2MRsCE6i5pVEEnorSBGCE0Ta2Nwqa3Clhgxxp/2gOK6YLv9YvxUdMzIKDLSgj310A6C/A3A7FLdhz7/8VmRhh0gi2DA0NGTdNf21L4PKcYAe18bo6yxFHwCI9HJ9KRa3Te6thEAt0bkHX7AiVtYoZ1p/l9q+0tLnATgewPEQAE/s+4w+/pHboPo97LHTjSJDbeKpRmCb/8MfNrb9ZdZxUDn7LtE3QjFr8t3R6wdRTUJNuWBmlkFIrO8Ute2LOqDpRvi1bpzDLgDeDsjb8fim9fr4xd+Fhe/I867+X16cCoPttCsXHaSKM7b9Be8G8IIdrn3FwzC1KG7b68oaXCw1X6jF9mmp567JbCg+gTY+rusv+g905FOyNwFXKbCdcuXtJ6rKP9jA656bfmIIzv8oGYKrRAiugAOa9IMQjeMaU5P6nAI7Jujmo6Fv0ccuugHt9mdl7688ymtVUrANDal197Qlp6jgU4C+amLeAENwpkFkxlsxBTXUOwRncEBjEkTKtP5uQ839RhOK96PReIc+dtE/Yo9rrhOhuxumwj3HdtqVi0+6e9riP6joTwF9VffDMDBj2JJ25rjhmZIXt+WcYoa2T9iPSjefXEugeTq1atiFngq1r8X6D/1K1168D69fCTy2069e9GJV+aKqzlfpZRiGxW3zhRoMQs1028eEWk4gqn7bE2oJvLSw18dDOr/Xxz70Ttnzyz/ntSygx3bat+6eeupViy+zVVap6vw4N3YuICrCiLUWaf3lCsF1p7KG1vuRjjpDLdpL8wnTKACdCVv/S9de+Alez4KB7ZQrFh2MLVt+DeDjgPYn7xYMwTEE16u2L+qApmxtXzegqacTpoHauBoQXKrrLvy/quf08fr2GmyqcuqVSz4kltytwCEMwTEEV9sQXE8HNAnaPkVaf7b+UkcvTf1fayQE/xbrB35IuPUQbKdfe+sep1295DaIXgtgwPyItahhGBa3LQ/UTLd9UQc0+dam5Lyan5eGrF5aEATfjPV931cdaoLqLthOuWLRwZ1O89cKHFuMEWvvU7tzAVEtQ3AoXdunGtDkBaJul4mrm5cGP68ryktLAEEFoPJ2rH/y/6kO1X7Vlq5dgFOuvP1Ey5KlArygOCPWdIYtU+dGiJGM5BRDcGWorJENOLE6aMy2L+iApm5QS58gEgJBvz6hgOq7sO6JLxFsXdBpVy3+oIj1CwV2zjxiZWWNHKEGg1CDQajlOKAx7fmAj3TUG2pRCSKKdKFHn9/QIAjKx3TtBWcQbHl6alcv+YgCXwbQiGXYchr9MgSXh7fCEFx12r4LAxp6acEQjE4QCfbSJu9TAP2Orrvg5QRbHp7alYsvEtUrE4GIIbgEhq2AxW3zSuvnSg0Fanum9Yd7aXG9rqjtQ+bfEPkbU2DbC/XBc3Ym2Azq1CuXfEgFV5cjDNOlEWsditsyrb80bd+9+eSaeGlAFxJEIvY58TsvxEDjGoLNkE65csk5EL2GITgDIbhKFLeteWWNWs8n1wRq3UwQifoNdfcd/Rtdc95bCLasULt68TEi+hUAwjBMHqNfVtaozIAmBxAVru0rC7ReJ4gEQc3nc8HXdM37diXYUuq0K5bsL4ofAegvZRgmJxAxBNcrqKUPwXUlrb/qKzXQS0OOCSL+EPTf52ygcQXBlkKnX7Z0hlr6UwCzyhCCY3HboobgUIgQXJzPmNZPLy0WoEK9tEwJIh6vLmSfIu/Rv7z/lQRbQtnN9r8AOJghOIbgkkCtsiG4OpeJq7KXBqSo8xgTUJO2jxHe1JhgBSxYcq0qhGCLqVOuXHIOgNMZgmMILumAhis1VGxAU2WoFTdBJPo7O7Y/CmvPeTvBFkOnXbFkfxGfZ9WY1t+1EFyxittypYb6zidXDWglShAJ8x51wnF9qQ6FkjOBbWhILbVwA4AZ5QjDsLJGmJVmCK5Hbd+LOUUWNjbspfU8QSTIS/Pu40VYu/ZMgi1EK2csvhjQ11UzDJNvCC7a+rKyRtkGNCa84ST9iGn93fbSgEIniIT2xwnH+WnV+Q2CzUenXn3bXgoZKmwYhiG4HEJwrKwR9n5tV2qompcWCIbCJ4hgUujRf58HYM3OlZ5rS++xaeOLAKYxBFenEJxJqHGlhkrMJ1cNauVPEIk47vGHtv+RYPPotGvueDmAsxmCYwiOKzXUeD65EkCrYIJIHHCqHqpr/uZ1BJv7mtj2tc99lyG40qf1ZwzBxR0Is+2Z1l9uL600CSIh8HadqzY+QLCN6ZQrl7wVwDHmocbKGt0MwSH2+TOtvwhtn+9KDTD4nbJ7aUAlEkSCIDjhPfutuuZdexFsACwLH88nDMMQXNT7DMF1e0DDlRoq66UFgqEyCSJxPNIm0Pzb2oPt1Ktuf4OqvpohuJoXt+VKDYY8nxLOJ1fCS0M9EkTieKSq761ima2EHlvjY8UIwzAExxAcuFID0/pTemm1SRCJ4ZFiX6x5z1/VFmynX3HHoYCe0IvitnGGoQzBlSsEp1ypoaBtX1Go1TVBJJZHKu+oLdjshv1RQCV5l2IIjiG4CINThhBcneeTSwk0JojEOu4d57pA779woHZgO+m6X+8ExduY1s8QHNu+zFBL0/Yl9tJih+MqnSASAW8FgF0wsPmk2oHNao28HapTmdZvMARXmuK2XKmhvmXiyuylgQkiSTxS1bfVDmyi9juZ1p8TiGoVgkN12r4OZeJKy7iaJIhoGo808LhP1bvP6asN2E6+8rb9FPLawofgcixuG+drDMFVLQRX8zJxpXXaapQgYnbecCZmba9MdmQk2ESsswG1Ch+CA0NwDMGZCsExrb/8XlpmQ4+KJYhE/4bgTbUBGyBvZQiOIbi0Axqu1FCyAU0xtC2hp9aXLByXwNupToJI9G8oTq8F2E667o7nQXE4Q3BlDcGxsgbbPknbF8X50s0Ju99AToY+GaC6miCSy7zh/rrmrAMqDzar1TlxYhiSlTW6GoLrenFbpvXXt0xcoZQQbDpQvwQRhHikGeYNO83jKw822DixmmEYFrfNF2pcqSH2xqn7i8kycSX32CzdJTdDHwao8iWIIHre0D6u2mBTFQiOZwiuLiE4rtSQ4KJkBhEzIEOMkiWbkt2GMis/Qx/ipZUxQWTS9pNqRx6rOr9RWbCddsXtLwOwBytrMARXihBcF9L6K1kmrogSPJzwvp7FBBFj84Yz8fDgKyoLNrWsY1jcliG4/Ac0OT7QDKb1l7FSVmukcV9CsO2To6GfCKjyJ4hEf8eyX1dZsNnQIzOBiCE4huCSgohp/d2bTy6uNv7h2+9/PDbSdKgJYJ9cDX3VEkTCjhsK2FL6B7UDwSaCIxmCKwvU6hKCA9u+2lADoP+baPMnNu4LRV95E0SK+GC5Hq06ZKHE8j34E6+5YzZs7NsbqNUlBGcSRAzB5Qu1HNu+62Xiii75Y6LN25ibCFCFSxBJAKjuzRvuigcfnFM5sDVa7aN6F4ZhcVuG4Io2oKlKmbgSYE1wR7IvtA9L7qXVPkFk4nH7XZuGXepwpC/YZGx+rYwhODUYgou2vgzBVWZAY9SDLmjbl0BttRclROGhXTH0YV5XGRNEouF9TJn7UTNg2HRkWUNwYAiOIbg0IGJh4957a8Ca//nGB/6c8GtHJgdaKkMfI+xhAlBRoQcD8I70EhSAVMtjO+Jbd/cp8LLouBVDcAzBlSUEV/OVGkoihd6eaPvHL3ohoHsnN/RMEIk+bt1X18zfqzJgm/3sxpcBmBJldBiCYwgu7H2u1FCQti8T2BQ3JvqC3TkmOBxn2tAHhSFKmyAS/RudxqsqAza7YR3JEFyVitt2KwQHtj2hlkWbpk4Z/lmyr9hvDPbSmCAy4bjTzBt28OrKgA3QIxmCQyFCcIh9/qysUYS2L1aZuLK5a/jRimsuHo7v3c1vQOV4JojE8EjjHrcX3lIlsOlYxRFW1mAIrhQDmnKt1IBuzSeXTCLWvyb6wvrdjwZ0N1YQCfH0ss8bHlHWgsgTwHbiNXfMBrAvi9syBFfuEFzNV2oon7f26IufnJk0zf9sJoiEwNvMvOEMPGi9tPRgs9qtV7C4LUNw5Q7B1fyRjjJyzdKrFy5c0Im9/ZqLpgBY0ANDHwzBJIAq08oDll3KcKTnOTY5PPpipAAR0/pLGYLjSg1FbftK6ek27P+b6BuN1lugunN0v8v6bJrGsGsmvLTQ0aCB444LY7/X8rLSg03UPgyQcodhap7WnwuIuFJD8du+tO6aXLfqGxdsSeisv7t3hj7u9mmgVsgHyw8vY7eaEIoUkcNKHYZhZY1YOTGsqlJkqKVp+9JqS3+j9dVEvX/NeXsB+oZshp4JIqH7nHjTHVrGSv/jB3zSdTfupIoXlTYMw8oa9a2sUeuVGsorUfnCf3/t755K9KWGdT6ABhNE0IV5QwWAGXhw1QtLCzZre/9hGItDsrJGDJPFtP7it30dVmooL9Ye2Nw3ck0ib+3Bc3aGygVMEElw3CYeLBf7sNKCTVXmljkEF+drDMGVKwTHlRqqCjUAtn7oga98cCTRdwabHwZ0Zr6GXoGqVRAJPe4YD5ZPmKIqh55LHhEcxBBcEaFWkhCcZukT4R5Zfdu+olBT/OR33zovUV1IferCnbDd/qCrSC8TRGJvHxfGAZ/bKC/YVPSgOFUXGIKL462YhFq5Kmso0/rzH9CUW080bDk/8bdG7L8DdFczht4goEIbrFtLzGSBd4xtREv3kLblOpeX5h+GYQiOlTWKNqBhWn83fTVVfd/K689dn+hLj5y/C1QvMpcgkiQcl9bbKVWCSNRvvFDvP2mgdGA7behnUwHszRBc+hAcK2twpYbY55667cstAS6/95vn/zzxF/vki4DOYoJIGARzXXmgAUx9cenA1p4xeCDUWxCZIbjEwGEIruIDml6u1FB6Z2251ZFPJ/7Wur97BVTfzwSRvDzSuCsPlCscaQGAtHAAQ3AMwRW67XuwUkOcBmUGZCw9aCvesvL6c1uJ7lwdsmB3vrbDYzBp6JOE44IMfQyYVGnlAUGpwNYEABVr/wnZRgzBMQTHlRqK0/bl9tQ2wJaTfv+t859I/NVHH78AglfF93ai+gwTRFKfq9oHlQ5sIrq/RseBKhKCY2WNnoXgUKW2J9RiaJsFPf233zr//sQ4XHfBfrDtz+Vj6BMAKjUYTMBYo0ZcZq9N6HFLqebYmmPn/oL6hOBMQo2VNfId0IBp/eXVRrFw+m+/9oFfJ4ba3ef0wba/D0RV8E/4vJZRQ5/FS0sDtV54pBNW035BmTqfkzDyQobg8oZaviG4aOvLlRpKNaApswSPq+qx93ztvDtSfX/PxqWAHpXc0DNB5LmObHzecHddNX96acA2NDRkAbovQ3BFK27LOcX6rtRQaj2MDo6595vn35Pmy/ro+acAelF2Q4+8DT0qlyAS9Rv92/crDdh+0/+q3QAMMATHEFy5BzRVWamh1FoqjdbRv/vWefen+bKu/cA+gP4zxheFjDL0pp7XqsISM114sFz7XlAasGlf/+xuh+BY3JYhOK7UUCmpil7X6Mjr7/nqhetS7eCpC3eCdn4KYLd8wnEGDb0CxasgkgRQQKoHy632/mXpkE1Re09ViWkzWNyWIbgY5546BFfzlRrKqU0ieN/vvn7+f6Sm4v0XDmB49L8AOZwJIjH2GQnjLNuHnavsWxqPDZA94xgXFrdlCC7+oKXXbV/ClRrKqZ83OnLIPV8/Lz3UdMjClNb3ADmWCSJZPNIuzBuqzi6Nx2bbsqf4PJzdmxAcK2vkG4LjSg29HdBUhmxrRfVD93zz/P/MvqfHrgYwn0vMmPS6cnqwXLBnacBmCXb3fTiblTUqGIIzCTU+0lFDqG1U4MvNjly28vrztmXdmT567ucA/VDvw3EpDX3kaKhiD5arlAdstuouwsoaDMH1KgRX65UaSqPNAny9Dfuy//nGB57JDDSFYO15V01K6y+SoTc6N1akCiKZ4F2eUKRAdypsCK4OxW25WGpCqFVlpYZS6H5R+Y5l4xsrrz93o4kd6qr5/Vi7yz8DekbqcFxhDH0aqCVN+zfhkSZJEAk97l111fx+mbtwtPBgA3TmhMdGUMzKGgzBVS0EV/OVGoqrjQr5qQX57j3feP9tgBg7CX3iA9Mx0vlPACdUxNDH22duXpoJjzTRvKGgf8vuAB4tAdhkp7xGvwzBVSCtPycQsbBxYWQD+L2K3mZp47bBwS2LV1xz8fCOj84x9iO67px9MWr/BwSvrJChTwlBEzDu0byhWDPLArad3ReelTVMhuBMQi0irb80Ibiar9TQW20VxX0K3CeCP0F1lWVbS1Zef+6Tef6oPnre62Hr9wHdI5W3wwQRw9cmg0fabuxchtFaE9DprKxRgbT+7obgbNh4FKJ/VsFfBHhSoE/aKk8BgKi90YbY/kcj45HvieoAnUlbhqrj3kI8+/L5M0zi94vy3A46AbuP2mPP3DDR7QLZ0tDOJohubABb7vr6Bx43GVqMBJrOb+DR3T4N6KfhFFxngogZCPZq3lDskoBN0ccQXDTUjIXgYn6tQCG4NoB7ILIcwO8s4Hcbp/WtXjW0YBRUyXRB135JH/rAnljb+T5Ej00VjiuLoTcBwTLNG4o9sxRgU0F/uNfOyho1DME9CMHPYeOXA8P9yxZ/fcEWQoGK56VBsPbcdwKdqwDMSue5lMjQ1+7BcmunEnlsLG6L6E0zeqqFXyz1cYX8i6Xtf1p+5bv+QBNNJYbaX847GGv1mwCOro+hTwnBss4bipZmjq0/NtSiu3Y6EDEDMgHUjM4pdgAsAnD96MYt/7Xy+nNbNM9UYqCtO2cq1Po0VD8C7JjaYIJIku1NeKQGE0TC2szescRZCcCGZmwQsbJG3EuSAWowCLXAzTZD8VVB59rlV77rCZpmKhXQ7r9wAFPa74bduQTQ5xfS0DNBBEbnDdUZuBQfbFEMyOitsLJGMqjlWlljM1S+rp3G5SuuWfA0TTOVCWgYuQSQ5z+XAcoEkXDbU4F5Qwv9ZQFbC3AnkLCyRgUra2yGLVf1t7d/efG1f/MsTTOVCmiPnbc7OngP0LoIqntOeKSBCSIZtjfhkXbtwfJyhCIV6AiL26K6lTXk55Y0Llh65YK/0DRTiXu4zm9g3axjoXoO2ngzoH0RIyowQcQkvE14pAbnDVXKEYoUdR43LWYIrt6VNTKEXwVrYeNDy6848z9BUYlgNtTEusdeDcVbsA7v2OGd0dBng7cJj7RLCSKh52qXKRRZ3BBcnN1WN60/Vfi1DcXVI1NnfGbl0GnbQFFx7sDHz38hWjgOwHFYu/54QGaGGlAmiJiBYKnmDQFo3Fo+PQebpkjxZnFbM56q8cVS16vizBVXnLWEppry7Ykb3jsDI4MvgmW9CGofAtiHQ3EEWtj7uf4lCYxfnQ19DecNBe1SgE2gWxSyO4vbxvVUTUENRqGmqoubfZ2z7vziO9d3zUg+8+GZGLEOguAlsDEDsKbDsncBZHpZ0oK7IzvlQNH9VTvePp23RadhR1WhJqCzAMwCZA+M6q4QjD3CCEAlH0DVxdDH3t6ER1qElQekHGBTyKaaVNYwADXDc4pJveHgDy7f++HmJxcuPCu3MIE+8YHp6Ex9HcQ+DpBDAbwUI5g9cZCvHkNZe//IoUwOhl78O7yEDxiLE44ri6HnvOGEl2KXBGyKTe7HUOqd1p9mVJ1hTjH7YqlbRGTBssvO+GUuZnndh1+KhvV2AMfDltdAtK/XVevLBzUaeiaIZLk2JtrI4EDFllJUJ2qqhc2iqEZaf2YQlSr8+owKTl1+2RnLjZrjpy7cCa3+BQDeC+DIAq8tVg6oFdbQdyMcZ9DQ55ogwnnD+G2kpVjVoykqm3c0UgUqa9RnsdT1Kp0TV1x29v8YM8XrP/wCSOMf0NKzAUwlnPLw0mjoy2foOW/o+XxzKcAGxdMVqKzRg7T+noVf/9hs48Q7rj57jRFTvO4j+8HSiwE5F8AAQ415Qa0Xhr5L8y5MEDE4UClCgkjI55ZsLIfHJvq4anIQMa2/N1Dr7+hrF1991pOZzfAjf78LBtpfAvS9gDCD0RjQymLomSCSy3GHOgRVmDfUTeXw2Gw84R2kl6KyRvSuK5HWPy7BWrTtkxZf9Y7sUFt/8XxI66sAdieYuumlmTBmNPTFMvQm4F2WgYoCapfDY7Ohj0sibwX1LWzclcVS1a+vPdVoN06486ozH8lkhh/76P5Q/QYEJxJKBqHGBJESGHrOG5ppo0Y5PDaB9bjzVGcJKmsYglqCUXjcLxoLv066r7bZar1p+VULVmcyw49/9C1QvQGCUqyAW14vjYa+fIae84axf0Osp8oBtoY+oXYZ0vqNPdCMEqX126ry17++4q+XpTbDOtTEY1s+BdVPA7AIpjyhxgSR3hp6zhvmMsByby+b15UCbJsGNq2dPjxDoZCsaf1dA1GpCxvHhhog+OKKy8/4eXov7UN74IlNCyFyDKFkEmg09OUz9Jw3NBBl2CoHLStFur+14uIFw4A+YSKt33AILgPUKpEBuWSvPzeGUpvidZ/YF3bzDiihZt5LU8/nIcYptsFUz/YxfiOxoY953OMfxzzuCdub8EjV/9okMdwa87iR8LhDIaghbZoAxhqxT+MDFQ1p0wn7WFeWu7Y5drKPALJHgUJwJYUaTEHtCQHOWrhwQaraj7ruIwfBat8MYB+CyRDUmCBi2EvLwyPlvGHOUYb1Zblzx+Zc5JFCheBCoQaDUINhqGn2tH7AFujZyy4/M9XoSNd95AhYuJNQywq0sozoI36juyP6BIY+D4805nEn8ki9bZrAW0/iSWtMTzq2R5oyyhDWf1UfK5XHpqoPi0hRQnCoR1q/vz1RwZeXX3bWLanM8RMXvRg2bgQwi3Ay4KUVZkTPBJHwcAgTRLoSZbDk4VKBzRLrYfWMUAtT2DgB1DIZsLggyjf8+qil2y5JZY43fHg2OtYt4EPXhoBGQ18+Q88EkXCjmrH/qv1g2Ty2B55buqZnIbiUwDFZ2Li3c4oC+0PLLn9f4qwj3fDxGWh3fgHBCwiobnhpJoxZyR7MpaFHpSqIpIkyiDxQljvaAoCO6H2RUMsBRJPboKZp/QAEetOyy9/xo8QmWYcstO0fQvAyAioj1NJkAsJUJqDPbxifd6lCJmDd5g013nEn6r8I6b8h/cJGaTw2CwBe275rDaDbuhOCMwm1SqT1A9BhsfSCVC34+OaPQ/SNBFQaoDFBpFSGXpkgEt6mBhJEggZYihG8dLdHSwW2oaEhG4r7q53WD4NQg0GoAYBct/TSd/w5sWl+/KNHAvgsIZXBSyuMoTf1vFYVDL2p57VyNfTxvfUknnRhnzfEn0UWdspyh1uu0/hTL0Jw3UvrL+ZiqQrdCrt1dWLT/MyHZ0L1+wC45ExqL61Ihh409KnCcb0y9BV/sHzyoOz3ZbrTm89dI7lPRLsdggvpO11I6y/AYqmW6jeWXfmuJxIfxmjjGoDJIma9NGQHVKLt0xr6mMedCFBR4Q0+WG6ujQqcIBK0vaKcYBPoqu6H4GJCLScQFaCqynaIdU3iM3r84qOgeDdhlaIP0NCXwNCzgkj44L8Hj6EIfldKsHXEurcBG5nS+hOBKMF31BcvMby1Yi+WKsA3k1YYUZ3fwOPytR1fp7J5aXkY+gI8mFtmQ1/ZB8vzGKh08XnDhnVvme788Tm2WQdufiA8MzIGiHLNgDQFNRRlsVRbO3pt4hZ7fL8LABxOaGWFWl4JIjF+gwkiYIJIqeYNn5IDb19bSrAtXLCgI8AfWNi4K1ADgNuWX/WORCti64aPzwD0ElARQMvb0CuYIGLaI2WCiH//7WaCSOBv/LZsVsDynMq9vYEaDEINBqEGg1CbdCg3JG6ttn0egF0JryReWh5LzIBLzMQy9Hyw3Hzo0WCUIW7/FXtZ2SxB03Mhfw9ID9L6e1zYOGxOMY4BjXx/0mcbR6fN+Ekik33/hQMQ/TDhFeP6MkHEzLVhgghqlSASdNwdrCg32Cz8Tu3cQ3AZoYbkUMuSTZlDVRVV/cHKodO2JTqc6f3vA/B8AiwpGPIw9EwQyQRBJohk2L7r/dfG1P7flM0qTAhFWgP99wBo5xmCi0Uq07Upi7ZYqmV9L5HpVggEFxNiaYwIE0T4YDkTRDL031Xyols3lhpsN3/sxK0QWW2yskYwUuqT1u95+ezef24kGwGt/9hfAXgRQdZNQ1+BBJFE8GaCSL4DlbD+W+h5w+VltBDWZJth/zeiUMS0/rRQgw3ctnDhgmQ11yz7XYRZtw09yp8gAiaI5GDoE3hpaUOPhSpIfXslwCaQu5jWnxVqIf1M7FsTmfGHhgYBvJ1AK5KhBw19qnBcJQx9Ag+29M8b2ujXRWW0FM3Jb3Xu8vKOaf0xN478TCGWJgIbBrecDmAmgRZm/NIa+iQGwVQ4LsFxA0wQydSmaQ19zH2mPtfSrFj+Ozngzg2V8Nie2WOvPwAYNh2CK1paf1wQxXk/gaf6yIpL35lsFVpLTybUejGiTxKOi2nMmCAS0qZMEPHvv72cN9Sby2o1JoFt5bmvaAFYaTwEZyCtPz2Iwrbs4mKpijtS2PV59QUaE0RiAcqIoeeD5TVOEAn4DeuWyoANAAS6LB3Ucnug2dXWJUrrn7gnqOCeRKb9iYteDGA/emlMEAmGMecNu2fo/do0beix8POGWzDVWl5WC9L0e9OGLIsXo01m2IM6afEyIE1BbaIaSZd+UHlDraFWpHmX8I4B8/MuJs6VFUQi+0GdKoggUf+9SfZfvL1SYBvtl6X9o2pD/T26NN5KxKYZoaaFS+v3C7+Oat8fE7WOLUfXZ3EaJoj01tAzQST0N6qbIBLkwf60zNbEF1xL/+HUZ6C4z1QILuim7A3UYBBqiA01KIbvumL+4wlbZw6hlmfoJmZYK4kxY4JISJty5QH//lu4ecM2mqM3Vg5sY1pmKgSXDWowDDXtSlq/z1t/BiR2dosqBIoDqg80JojEAhQTRAoyUAnrv5VZeWCJvPS/n6o42EqY1m8CRIiKRiTzVMVCopWy8dRFzwewU728NCaI+MOYCSLdNfR1e7Dcs0+xf1J269IM/qSxCO22iRBcIngYAVEBF0tV1WQPOrbloFpArdYP5po4VyaIRLYZ5w2TnKuNdufHZbcwgR7b7Z865READ5oBTlELG3evVJgCTyaz/bJ3NYGWx4g+STguraGvwoi+bvOGynnD5P13iRz2m0crC7Ydpyq3mjHspqCGUqT1++5cZEuilpGqhSGzGvoiz7swQaR8hj4iHFerecMJ5/avVbA2oWAT0dtY2DgO1GLMKSpGE7bNjGp6aWkNfQIIltHQM0EETBDpdf/FKCz7x1WwOs1QsG3v3K79DXsHALsBNRiEGgxCDfGhFvDDAq0h2DI821OqB3PTeiJRnV9zvjZp2ojzhvHPs0z9FwDwc5m74unKe2y3femtT0FwV/fS+rMVNo6T1p/7qt0BVVVsSZg9I2UHm+lMwG7Mu5RlRJ8gHMclZlCfecM0/XfCZ99HRWRFb2L/KFMILivUDGdT9myxVDvxKfSVF2hMEMnX0HcjHMcEEf/+W6WVByZoEzZpqR/KTgS2TruxMEsILiuIypgBGRlFqayYINJ7Qw8a+jAIJjnuys4b+t268p9y1Irh2oDtjs+f/hBE7k0bgov21soGNaSAWtXJxgSR2IBigohhQ88Hy5P13yASyL9WySJZMQ3Xj5jWby78Wn0vjRVE/GHMCiLmDX2ScFzcgUqSKANQiHnD5KFHt9Zj1Z6L6we2tvx7+hBczdL6axV+ZIJIfoaeCSKZDD0TRBLcxvp9WbCwUzuwLfr8m+7TCUWRs0INBqEGg1BL4JnE6kRVpRsTRPI39EnCcXU29EwQSemluSjQ+E7VLJSVwJjdYA5qJUnrN7xYanVDj0kMPRNEgj3YtOE4JojEN/Q1ThDxk+gSmXvn6vqCzWr9O4DNaUNwtUnrryzUmCAS2xOp07whE0RC4J1H/9X0CSL+hv36Kg6/Y4Nt8dCCLSpYmC0EV4e0/gBPNfGDbEX30hJ4IkwQyR6OY4JIBkNfpQQRZA89PqenMLX5o1qDDQAsW6/bYe2LmtaPwqX1l9+Bq8sEOxNEemvoOW/YldDjhDAkbpD9F2+vPdgWfe6t9wK43RzUYBhqvcyATFNVpUyhRyaImDf0ScJxVTf04LxhrP6rpuxJG5CvoKKykn5BpHOFOaj1Mq0fBqGWIIxXGS+NCSK1SRAx9mB5WkOPhIaeCSIxvLX/lLlL/0KwOV7bZ9/+K1X8LnMIrudp/ekXS43zWSTUS+GlJfBEkobjamPowXnDWIaeCSLJogyZwXYtKiwrlfmzcGWmEFxMqHUNRN2uqlJ0Ly2WoWeCSHZDDxr6VOG4uAMV5Nd/kWf/RR6hR/cufy1zlv2aYPPoDuv3P4DKPelCcJrg+gd1qEm+Ws5p/QarqpQ29JglHJfS0DNBpGKGngkiPQs9TvDW5IuouFKBDUNDtqLzqeoUNq4r1KIMfVkn2Itk6JOE46pu6MEEkVj9Nwcv7blr9FvMXfpzgi3Ia/v822+EK0MylmGvc1p/4R5jq/IEOxNEEht6rjyAyiWI+Hpr1pBIuR9AyhVsAGCJ/uOE26EWhY3TzSkWh2tMEDFv6MF5wygIGgvHMUEkg+6pg7eWGWyLPvf23wD6bfNQg0GoITXUUntA3e2s6Y+RCSIJDL2hcBwTRDIYeiaIZJP9D3Xw1jKDDQD6WvbHoFhrFmqaGmrZgdOtqiplCD0mCcelNPSlSRBJEo6rs6FngkhklKEX61uJ/EIOXvEr1ESZwXbrZQs2CuyLEkMtBxDFD0H2erHUXoYemSBi3tDH9HZqYejBBJHUUYbc1Ab0E6iRLBM7WfKF+QsB/CRRCM5YBqRJqHVjsdSie2lMEIkFwTIaeiaIoBYJIpP1VZm7bBXBlkKtPvu9CjwSHYKrSlo/Cgw1JoiYN/RggkgUBBHzN5gg0k2tQ6vvM6iZjIFtxdCCpxuQMwC06pHWn7SqSrdWXmeCSHpDzwfLmSBiqP9qrxJEvBbeukBetvhZgi2DFn/hbb+Gbf+f+lbr73XwkQki2Qx9knAcUO15QyaIxOu/aaIMXdM/y5w7/ws1lGV6h3cMrL4cfvNtRUrrz9ThUlZV6WrokQkiwYae84bZDT2YIJI6ytDFEKQtF6GmMg42DA3Z7WE9E9Bl0VCLSOtPBIgE31FfnzGGt5a9VFgxvLQ6G/oEECyjoWeCCGqaIOJWG5aeKYcufYZgM6gV1ywY7tfmmxT6p0wgyjUD0hTU0COodXHepTaGHkwQiYIgYv4GE0R6qY/JnOV3oMay8trxbV9661NNu3MSFOt9goiBYcbSFTZOtQSPQS8tVTiuzoaeCSJ8sNxQ/y1Kgohbgn+Xg5ddi5rLynPniy8982Fp4GgAD3YXajAINWSGmtmuzgSRbIY+STgOAB8sN2jomSCSM9RWoD3tfaDyBRsA3PH5BQ9BGscA+J/upfV3p7Bxd6HGBJH4hp4JItkNPZggkjrK0BP9HrBPlcNu3kqsdQFsAHDnF9+2vjnafj0gdxcvrT9ByK9nozMmiBgPx5XZ0DNBJIf+W6CFQJPbh/shfSfK3BVPE2ldBBsALL7qrCebA1uPUeDb2aAW1vfMZFPmtliqcS+Nhj51OI4JIsEQNGbo6/Rgec90D5oyT+Yufow46wHYAGDx0N9sX3bpX78fqu8GsA0G0/q1YGn9k3418YJsdsZwXJ0NPRNEmCBiqP8WMUFkXPIrDLTnyUHL1hFlPQSbo6WXnfFdsfQYBf4UxbEypvXHqaqSzGljgkgyQ58kHAcwQcSkoWeCSJf0VayefYoc8JtNxFhBwAYAd37xjN9uf3rjoaL4MICtvlgoYVq/WagxQSTY0DNBJNiDTRuOY4JI/ChDz/QEVN4qBy+7UBYs7IAqFtgAYOX157aWXnbGl9XGYQL8qnJp/UbvBSaIJA7HldnQ1y2czASRGJFH+QUs63A5ZOmPia4Cg83R8ivOeHDpZWe8UaDHqODnZUzrzzdkUVdDz3nD7IYeORt6Joh0QfdC9VSZu/RUmXPnemKrJGBztPSys5Yuv/TM02DrUQB+AW8GRYHT+qNDkHaKK1J3Q58kHJfS0DNBJIOhr8vKAz3TIxA5F6uff4QcsvwXxFV8NYt4UMuvPGsFgFOPvOiHe6HZeruIvBvAy7KBqIsZkD4xyeRYyzoXkdbQx9xnJi/N9LlGnWeac43aPq2hDztPE+catb3h407aRj3tv+obkSmYlzYK6M0Q67t4ovljOXZxm5iqCNgcrbhmwVoAXwbw5SMv/sHLrCbeYqvOA/AqAANBN0rRMiCz3yoVMPRGjF+dDX1KCBo39GkyB7O2UTf6b0+BthkidwB6E6zWD+Sl//0U0VRhsE2A3NVn3gPgHgA48qIfTrH6Wq9R4HVqYw6AFwM4AMD0omVAauZcfxp6Gvqk2+dl6MswUDERZchVWwDcD+ABCO6BYBEe77ubnllNwebx5IYBLBr7N65XfuyGPS174MUWdBoUOwE6AxamKjDNvZ3YACABe7dhB33UmfiBRNwYHWcrG1DIkmx8q6qh70Y4LpWh/wyA4cndRCb0lcl/Bnzutw+Jk61th+8qLMgtEZ9P6KgJjjvy8zjXJsG5h31uZ/m+33EZktjbYMs2WLIJ0C2AbAaaD7BCSHckvATFlD724W/B1nPqPaLv4bxhw9pV9vv+M+yJFEWPjTIlu2CG3qiXlgGCXZ83pCiKYKNMkq2Ahr4uCSIURRFsVI5igkjNUr4piiLYaga0nhv6yiSIFLd8EkVRBFv1ZGNibg8TRIwdN700iiLYqIJ4bkwQQU8qiFAURbBR3QJaDwx9nSqIUBRFsFH5sa0YCSI51nk06pEamDekKIpgowxrwhQbE0TMeaRpQqYURRFslGl3rWCGvk4rD1AURbBRXYIaE0Tib5/iXNuj79YH5m+b6EJHqZOwje0Ybxva54TdGd5n2uMM2q1l3ycvvXMJbQBFsNUNckwQMQTvwG2ugWjCayMB22cZqEjwACDNQEUi9pm6jcRclMGW7wAg2CiCrVZeGxNEwCVmcvKkuzpQCfoN1manCLb6QI4JIgUy9FyxPN9wMkURbIQaDX3FDb2BecOeDFRSRBlir6NGUQRbBYGWh6GvUYJI/eYNCzZQCYgyMBJJEWxVlc0EkUIbes4bRv4G18KjCDYq1HPL1UujoS++oa9agkhYGzEUSRFs9QVaLoaeCSLGIch5wwxRBooi2CqkgGVr0hoRGvqKGPqKJIhw2SCKYKPnlq+XVhFDz3lDw9fGxECFK5ZTBBtFQ09DX+t5Q4oi2GrEOCaIGIEgE0RQjAQRQo0i2Ag1GvqcDD3nDZkgQhFsVDeJxgSRWhp6JohQFMFGL40JIom2L6qhZ4IIRRFsdfHaTAGKhh5MEAETRCiCjSoS1JggYvy4C2HoCzpvmNRbp5dGEWxUJsjR0Hff0HPeMOb2hBpFsFGJgFZnQ8+VB/IdqDBBhCLYqMJ5aRUx9Jw3NHxtTAxUmCBCEWxUZtk09JUz9EwQoSiCjWKCiInjLoShZ4IIRRFsFA19Lww9E0Ribk+oUQQblVgxlq2ppKFngkjweWYeqGwGtB/AABNEKIKN6qXbVk1Dz3lDw9dmwh82gKWA3gK1lqPR+JMcdMu68a1Wze2HvduLYOEQKF4H0VMA2Y8JIhTBRvUAalUx9Jw3NNtG439shOBrsBvfkrm3/iWoV8ncVaMA/jj274equBCrXzsPwMUATt4RKmCCCEWwUd2EXCovrSyGnvOGKSBoA/gW2q1PyqFLn0nas0RgA3fcDuB2XX30a2DLNwAcTqhRZZXFS1AGoKnnzzSGXv33mcnQx9jnhI/TGPqYv6EJj1tjHrcD48hrox545xF6VE8fUAB4DJZ1nMxZ9IE0UJsEuTnLfo0NzVcCuBz+8WWKItgo015aFQx9DAimN/QZPVINgXdaj1RDBioJIDi5TVehIa+Qg25bZLLXybGL23Lw0k8A9lkARnkfUgQblSPUSmboY3tpxgx9OEySzhtqTEBl8kgTQNALNbFeJwfevjavHigHL/83QN4OoM37kSLYKHNsK62hNxWOi23ow+GdJCybyktL4EknDSdPHqisR0vfKC+97am8u6AcvPRnELmANyNFsFHZZScEVOEMfQJAZTf0KPa8oXrgnSmcbMOy3yGHLX60W11R5i69HqLf401JEWxUDu5blPHrtqE3FY5jgoj/QMX3N74hBy1Z1PXu19/5OwDreR9SBBtlCGhFNfQIMfRMEJkIeyPh5GfRbn+6F71QDvjNJogM8X6kCDYqBy+NCSKhMKlWgoj39ddMpPSn1vDwDQAe4X1JEWxUStklMPRMEAmGN2B23lBttPDNXvZIecXKFoD/x3uTItiolFYELX8vrUiGPgGgKp8g4oW38XnDRd1MGAkeb8m/dqHz89k5imCrpBSbmCAS47irmSDic67WTYUYbx269M+A3p9v35dNNAAUwVZNsm0qhqFHiKGvaIKIopcJIv7XRrC0QNGEO/Pt+jbBRmUSiyAXlmu6ecd6bFxiJnj7uDBOsr2Jc81h5YER/KkwfdOWP05YKtD8cJtgowi2SkpkY2yjzCVmUPGVB56Vly15tjB909KHoTmSjaFIimCrqsdm/zlyBW0uMZPy2uThkea6YvnmQvVNG5ty9dgU62gAKIKtkmBrroZ0umTouxGOM2roc/RIC7lieadQfdNqdKB2fvvv2KtpAKhMXZSXoJiS/f/pWUDXTjZ+TBDxP65KP1g+vVgem+6U496flcNXrKUFoAi2ytINq8wZ+hwK+pa5gki5HizfVR+aN1gcq6F75bj3VbzxKYKt0tKV5gx9iFFmBZEQeCeAYH4PllvYbh9QHI8NL8mvy+MPvO8pgq3Ksu1fsYJIGARLWUEkXTi5o68pUCThyPz2rYt541MEW5X18PplAJ41Y+hZQSQRBIs2byh6XCFiCKuO3BWCl+W0+zZEb+aNTxFsFZYcu7gN0VuYIBIE7xgwrsq8oeqp+qejZxTAZMyHopHTzlfI3BVP886nCLaqy8bP4ht6Jogkh3HU9oWZN5yKDs7qvcuG9+U3ksMvecNTBFsd1Nf6DwBPM0HEpEda0nlDxUd10byePXuq/3P08QBemRsypfEfvOEpgq0Gkn0WDkP1hmDjF9fQJwAUE0RSeKQ+x2103hAA8GLsPnp+T6D2w/kNCC7P8Sd+JXPuuJ93PEWw1UV245sAbH8wMEEknpcW1yP1+Y2ezxtOuGU/p6v+at+u98G56z8M4PAch3Bf541OEWx18tpe/C8PQPWXTBDJ4qWVcd7Qz3XSnaH4ga6a2981b+0PR70Sql/Mr4PjIayefSPvdIpgq530k+NeGxNEAuAd1yON+Rs9nTcM7QtHwZ75HdVcSxHv+KU/vuYFgPwUQH4gtfVaWbCww3ucItjq5rW98N/vhep3Q41ynoZeUcAEkQSAKtW8YSwv5x1YfdQ/55lMove+dn90GrcA2DPHrv0grI3f5B1OEWx1ld38NIDhnhj6uIBigkhCjzQLeeSdmNX6ia46clfjUPvD0cei0fk1gBfna4Gsj8rcVaO8uSmCra5e2wH/+iigX2KCSAIIljJBJJHndjLUukdXH32yEaDdfcRU/cNRl0JwC4Ddc+7Si2XOnf/FO5sybit5CcolXTSvif12XwbgVSVZSyzG9nFhnGX7NOfajRXLTd7N8gug81mZu+K/E/erVXP7gV3eA9VPAuhG1uV2WPpKmbOcRY8pgo0C9MG/fglg3wNgavUMfdT2eUAwDYxNrFiem+4G8H2I9SuZe2fgop26/MgpmNk4Gh09HYIzAczqXifWD8khy6/j3UwRbJQLbvPPB/B1o4Y+z1W5jUDNEKASbW/CI9VedpVnoLgPIo9CsRnQfghmAHIAoC9CntmOwboJc5edLNLbC0MRbFQh4fa2GwB5T/kNvfq8NJHdieweqcbcZ++9tLLoCUjfYTJ38WO8FFReYvJImfXMbucAuD3Y0JclQcQLBiaIVHQYPQxb30yoUfTYqHCvbc38XTFqrwDGVjVmgkh2eE96u0AJIuWVDcV8OWTZj3gpKHpsVPjIZJ+FT0OtU6B4lBVEylZBpE4dVT9MqFH02Khkntv9b34RxLod46naTBCpUYJIwTsnPimHLPsiLwRFsFHJ7cef37ofbNwO6AuLZ+iZIFJLpAEfkYOXXcNLQRFsVEa46S8AzC2OoU8DhrI+WE6NyQb0PDl4+f/lpaAINio73O4/aSfIwL8BOKm7ht4goAK3TwM1Joh0WZuh8m45ZOmPeSkogo0yBzed38AD7S8A+glWEMkCb0ItoR6ApW9hqSyKYKPyA9wDp78bKl8FML17hp4JIjXVTbDlLDl06TO8FFQvxXT/qo9cXvzTf0ZbDgGwIv8lZhRcYqaW2g7I32P1808l1Ch6bFT3PLdV8/sxMPJ5KD4CqMUEkbjbE2oR+h0sfSdDjxTBRvUOcPef9hoovgngsHSGngkiFABgFNDLIRs/x4VCKYKN6j3cFs1rYq+dLgDsz2N87i0PLy0N1JggUgLdDrEuDFsSh6IINqo3gPvjm1+AZvtSqC6Y1BeYIEJN1sNQuZhp/BTBRhUfcH86+RUQuRyCY1lBhPLRk4BciWnNL8v+i7fzclAEG1UewP3vKadA9XMAXmbGS0sDNSaIFEjPQHAF2tOuk8Nu3srLQRFsVDnhphD870lvBOQfAD0mM6ACt08DNSaIdMksPArVL2Owfb0c8JtNvB4UwUZVB3L3vfGvAPkEoCfDeeaRCSJV1r1QvRIjI/8ur1jZ4uWgCDaqwoA7dS+g/X6ofgDA84wDKtH2aaDGBJEQjQD4KSy5Hi9depsILw5FsFF1AtxD8wYxOrAANt4H0WMm9h8miJTrzpf/gep3IPZ3Ze6Kp3lBKIKNIuTuP2lvdNpvA+RvAD0sGdSYINIjrYHIjwEslLlLl7IXUwQbRQVB7o8nHAHo26D6Zghemg1qTBAxrAeg+hNAf4SDV6xgqJEi2CgqKeTuO+Eg2PabAX0TgFcCaKQGFBNE0tzRHdi4C8DPYOEnMnfZKvZKimCjKFOQWzVvOizrWEBOBfSNUOwbG1BMEEmiPwN6K8S6FejcxjkzimCjqK6B7ti5AN4AwesAvBbALCaIpNJ6CO6ErYsB3CyHLH+QvYuiCDaq15BTCP44by5Uj4UlrwXwGqjuzQQR37v0PgBLobgTqksJMooi2KiywO6+1++F0farYclrAH01gJcjaOXv6nppf4HqbyHWSoiuxIh1t7z8zg3sHRRFsFHV8OosrJ73QmjnMAgOxY415A6F6gsQ9AxdebQZkD8CuhrQP0Ks32NEVhJiFEWwUXUE3kPzBrHZPgDSOQAiB0D0AEBfDJV9AOwFYKAgh/okgIcBPALIIxD7Ydi4D5b1J5m79C9sSYoi2CgqHvjuPWp3NHUvaGNvwN4TYu0G6G6A7gobuwKyKyxMAzAdij4A0wD0u/47CsBbzX4YwDAEz8LGVogMQ3QjVJ+EWhsg2ADBExD7cWjjSbSnPMKK+BRFURRFURRFURRFURRFURRFURRFURRFURRFURRFURRFURRFURRFURRFURRFURRFURRFURRFURRFURRFURRFURRFURRFURRFURRFURRFURRFURRFURRFURRFURRFURRFURRFURRFURRFURRFURRFURRFURRFURRFURRFURRFURRFURRFURRFURRFURRFURRFURRFURRFURRFURRlUsJLQNWlP6uq7/uf+cxnEt8Hl1xyyaSdiUTuRtlEFEWwUTXuj6oaCp1Vq1ZN+mz+/PkTXq9evbpnfXzOnDnjIFu4cOGkz+fOnatR4PSBJeFIUQQbVZQ+FgQqN6AcMMUB0uzZsyO3Wb9+fc/6+OzZszXi2CIh5cDRDUY/IF5yySXqgSABSNHoUJRpcHmBFQSrdevWyRFHHBEJpDlz5uCxxx4L7LNPP/10ofvzrrvuGgibPffcU1evXh0LjkFA9ELQC0AP/Ag+imCj2E8AYGhoKBG4vF6VF1i77rqrJIHTxo0bZZ999vH9bNOmTRLhQcXaLql22mknHTu3WNt5tWbNGuy8886aBIpeEHoBGAY/P/ARehTBRlW6PwR5XnHg5QZXXGjttNNOEgao2bNnB8Jo69at4+8/73nPi3WSW7ZsMd7vp0+fHgmDDRs2THg9bdo09YOfF5BeIIaB0A3Ap59+Wv3At3LlSjz/+c9XAo8i2KjKQywMYO5wYRC8/MDl9bDcgJo2bZrEhZQXRrNmzZr0Ha+2bdvW0/49derUQBA4UHvyySdDAemGoReEW7du1SAAbtq0SdNAz+vp+QGPsKMINqpQbe0NJfpBzM8DCwOYG15ucHk9LQdCbmi5gTVr1qxJoPKD0/bt22XnnXeOPOHt27cLAMTZ1qQ2btwIABgcHNQ42/pt54XitGnT1A1BNwAd+IWBLwx6UcAj7CiCjSpM28bxxpJCzAkbBnleYfDygssLrSBg+b3vQMtzbL7vR2nGjBmh+3XkBtDmzZsTN8jg4KBu2rQpcJ9hoAOAkZERDYJfEPj8oOcHPG94MynsVq1apQQdRbBRuXpkUSDzCyemgZgfwKZMmeILryBAud9zgyUMVH19fRJg/AP7tPPZ9OnTjV74LVu2AAAGBgZCDbjf54ODgxoEydHRUfUDoB/8vO8FQS8IeO65PQd2QZ6dO3ElBegIOYpgo5J7ZXPnzh1vV7+5sbggC4JYlAfmB7CBgQHxwssPXDNmzJjwnh+ovFDzbjNt2rQgUIT296lTp4Ze7G3btoV+3t/f72u0t27dGgq4LVu2THrP+7rVamkc8HkBFwS8OLBzPLsory4KdE7okpCjCDYqNsyivLKg0GJSkPl5Yn4el/M6CGBh8BoZGRHHo3K/74aVG1AOjPygNTo6KlGwigO8JBBzq91ua9D33JB078sNQTfc3GBzv+/n8TnAC4Ld2LVVr2c3PDysSUAX5NE5oUtCjiLYqMh28oYZ3Z5ZEMzCvDJ3ckdckLk9L/drB1T9/f0S5F25QeV93w9cU6dOnQSdZrMpcaAUBjzv96dMmZK4QTqdTqQh9oNYEBi9EOzv71fne37gc+Dm9vaCQBgHdu75Owd2fqCLG7ok5CiCjTLinbkrcwR5ZmEwc4cWgzyyMJC5PTE/iDnvORALApgbXl4w+cGu0WiIJ2w3/toNrTSeWRYvbnh42Dl/DYNilBe3bdu28dfubb3ASwK7uKDzhi79IOf15oJClm7IeZ+lc8/JEXAUwVYToCX1zoLCjGGemR/MnL+DwopeaHlDiWEQCwKYF15ucDnQcoAVBCsv7Ma8IsfrNNpYIyMjDpB9Q48O4IJAODw8PAF+bvC5PTcv8NxenrOd87nXs3Og5rz2hjDdoMsCOceTS+vFeZNOhoaGnM8IOYpgI9DCvbMkMIvyytxwiwOyIIh5ARYELy+02u22OLBy4OUGmNuDczQ4OGikwbZv3z7pPTek/KA3MjIy4bVfWNMBoh/wgmAXBTov5PzAlxRyYeFKtxdnCHCEG0Wwla0d3HNofiHHpEBzP1MW5J2558zCwoxezywIZmlAFgQxN8D84DUwMDABWg6svCBztu/v7/f14NLKz0MbHR2d9L4DJzcEnffckIsCnhd27s+9UHO/Fwdyfp6c89ydAzb3PFwSLy4r4DgHRxFsJfbSopJCnDm0JCHHpEBzhxqDwozuubI4MHO/5wDMbzsHZF6I+QHM/brdbosDLW+40b2dNwQZBDYvAEdHR2OBzfHOvOByb+sFnxd6fX19GgS7uKDzSzxJA7kgLy4L4OKGKMOSTOi9UQRbwa9/Vi8tag7NSQiJCjnGBVpc78zPMwuDmRdqDpC8XpgDMT+vzevReWEX5cGFwc7POwvy0JztHSC6IRXkrdm2PQF2QaBzw807F+cHuaDwZBbAxfHg3CHKIO/NnWQS5b0FwI3eG0WwlQVqzkPVQVBzajNm9dKiQo5pgOa89oYZwzwzP5hFgcwNMS/A/N5zQ8z9eVywxQ09emHm/dwBnh/s/EDn9uiCIBcHcF4vLing3CHKoDm4uN5bVIIJ4UZlVYOXoHie2kte8hLJC2rbt2+XadOmTYLajBkzoKoyMjIinU5H+vr6pL+/fxLUms2mdDodaTabYlmWjI6OSqfTkalTp0JVx6E2Bh9RVel0OuPvW5Ylzn8BSF9fn6iq9Pf3i6o6+7TGfscaHByUTqdjiYg4f1uW5RyHJTsmXayx37H6+vqk2WyKiEij0bDGQGv19fWJZVli27ZlWZaoqqiqtFotq9FoWAAsAJZlWRL0z9lmdHTUEpHx4wVgOddj7FxgWZY4AHX+bjQaUFVpt9vifH9gYACqKo1GA7Zti6pKs9mEs73jNY+dMzqdzoRtms0mnM9VFZ1ORyzLkr6+PoyMjEiz2XR+H2Pnj06nI4ODg7AsS1qtFpztt2/fLlOmTMHw8LA0m000Go3x7Z32s20bjUZDpk2bhq1bt8r06dOxdetWaTabaDabsnXrVlFV9PX1odVqycyZM/Hss89Kf38/pk2bhmeffVZUFbNmzcJTTz0lAwMDGBgYEAfwU6ZMwZQpU2R4eBhbtmyRGTNmYMaMGbJlyxZs2LBB5s2bh8WLF8vuu++OefPmyeLFizlApybJ4iXoPtRUJw4wg4oS+4Ufw6DmKAxqftmOTqZjUGKIAzTHG/Pz0kZHR6XRaIgDNbeX5rw/ZqzH/+tAzvHQ2u32OESczx3vzHnt/HMA5fzXsiwZHBwc/6zZbFq2bVvu7Zy/BwYGpNFoWI1Gw3L/HfffjBkzJnzHvX/3v8HBwfHjc47Ne/zecx4YGID3GjjbtVqtCdfL8Xad6+v8c9qm0WiI14NuNpvjHrfTrl5PfNq0aeMee1DSkDt87e5Tzt9O39u6davMmjVr0rJDTh92/rtx48YJfd3p+96FaVevXi3z588fL1LgXq2Couix9RBsY17GuLe2YcMGcUPNuZkdQA0PDzvPkI0bmdmzZ2NkZET85tRarZb4hR/9PDUA455Wp9ORkZGRSZ6a4yWkCT2GhR0dA23btrhDjp5wozSbTVFVsW1bLMsSEZExb8XxXqTT6VheL07GZI19yYHQmIc0DiTHe3O8rrB/nU5n/Lec98Z+Y/x69Pf3w9mnc30bjca4F2bbtvT19cE5j0ajgU6ng7FjRKvVkv7+foyOjoqIOF4Xxrw82LYtAwMD4593Oh1YljXutTn/ddqur68Ptm1P8Ops23bCwpM8Ocdza7Va8Hpu7tftdls6nQ7a7fYEz21wcBCdTgetVkscz63dbsPttfX396O/v19arRYGBgaw8847j4dlh4eHZcqUKdh///2xYcMGuL22sZCmbNiwAbvvvjsAgF4bRY+tx1DzvuG3InWQt+Y34vUqaOFNb9V8R94RubfyvV+9RXeCiFt+82lRUHM+94Oad37NgYdlWePve//reEDjI4gx6Hi9Jeez/v5+6e/vn+CBqWrD+6/RaFi2bVuNRsPq7+8f30e73fb1HkVE+vr64Pa4nL+d8OTYAAPOZ87xu6+Fc12918C5hmODlwnzi+4Bhbtt3O97S455S5WNDYQmJBD59Sv3AClolQZHQSuXe702R04VHa/X5sjx2rwREIoi2LqsrDdhENCCjEYaeWs3OvIzfn5GNOp9H+M4yQB75TXcbii44efsy/GK3TB0vt/X14dOp+N4Ow5sxsOJbtD19/ePw7C/v38clM1mEw68+vr6ApNYvMcf9Ln3XJ19OXBzw8ursEcaXOFp38GJV3mVHXNWPAcmr46eRvPnz6cxoQi2AsUhS3Gc3qVWgOBlW4IKAsepgD9mTN0epO93gtLto973+7zVaqHRaGi73Uaj0dBWqwVVVdu2tdFoqKqqZVm2jqnRaKht73jZbDbVyVjUsVHKWMhOw44t6nPv+841cT8bl0VBZb16IWfVgCxyVvCmKIKtgJozZ46vcXOvWuyWkyLtlZNS7S5M65a7LJJ7FWe/1ZqDFsz0K8TrlhdKjjF1Q8Yx1E76ehCEnLR2d2q8bdvqNvoOYGzbVucz5283rGzbVsuybOe/zWZTnc9GR0fVsiy70+nYtm3bIyMjdqfTsTudjr2D2R17ZGTEtm17/P3R0VEdHR11uDfhd51/qqqtVgujo6Pjx+ls54ajc37u8/R7iNt9PZz33M+6eQcZQYMNd/q/x0uc9L479T+oT3jXfgvqV+60/yC5Cye75aT9e+Wk/VMUwdZbjZcG8ht5elchBp57cHUMSJOqqU+bNk3dI2Bn8UjnWSL3Q7TuZ46c/zrPJvk9u7R169ZJlSr8lldxG8x2u61u4+g1tG6j7obbGGTQ6XTUtm31GnM33Jx/DjS8/9yg2bp1K1RVR0ZGdAxe2m637Xa7bVuWZTtQ63Q646+9CtrOsizbva9OpzPu5Tm/Pzg4aLvBGnTszWZT3eAbGRnByMgIbNvWTqcz4bOgB7ijnmsLq0zift8LvbAHtt0lt9wrBbj7YNBgyxmkeQdr3oe1AWDlypWBg0GW2aIItgLAzQlHOiNO743qjFCdG9sNtzCD4PXaHMPiGBr3A7VugxRkuMLg5n6414GdG26dTkfd0Ovv79dOpzNuhB14bd++HZ1OR/v6+iYYbwdwjmF3w8ENi+3bt0+AmvOeGz4uYKkDJ1Ud/9v512q1Oq1WqwNgwj/nfe/2Diydv53fd0PTORbbttV9rM57bqA55+oAzQvpvr6+8WvW19c3vr3zzw9q7XZbw6DWbrfVaU+/B7WdTMQkVUjc3lpYia2gh7SBHatyu+8F9xI3AQ9pU9Rzgx1egt5d96CHtKOq+AcVPI5aW83vebawUlpBhY6DnmeLU0YrTdUR9/Z+VUe8iRnu74RVHPEmosSVt7qIX/jQu427ZFac6iPuz4M8tKBSW3G9NL/6kVlKa7kjAlOnTtWsdSNZFJki2GoGt26V1fIDnDdFPA7g0pbWcr7rB7KgOpF+NSKDSmt5wqqxoeYFmx/c3HNm7tdRZbTCYOYX3vWDVZaCyM5CpUmWtDFVTmvPPffU1atXs9I/RbBVFW4O4OIuVxNVCDnKe0sKOAdmSYshx4Gc10vzAx3wXBq/97tBKfBhXlqcZWz8YOb3vrfSf1iV/6AK/872YZ4ZMHGh0qDix2EemuOVeYEWtISNG2hJvTQnhM4CyBTBVoN2yLLAaJT3FgS4uIuLZgFcXMi5t3N/7oWe11MLAl5U6NELPL/ve+X3KIIbYGGhSD+ABUEvzVI1SWDm9s7ihBz9PDQv0MYAG1nRP2nokUvWUARbDbw3B3Bp1maL48F5vTn3HFwSyHlBlmb1bO/Dwt73ghYf9YOUd8XsKIjFlRd23hW1g9Zl8wIsCGJBHlkUyJLCzO2dxQFa0gVGw4DmeGkxgEYvjSLY6gS4NB7cGCwmAM7txSWFnLPMTRLQJYGdAzfvd/y8PD/4JQ07xpHfQ9Z+EPMDVxjA/MKO7ucG44LMzxNLC7Mg7ywr0FauXDme9egFGufSKIKtxoDzC1Em8eL8IBfmyXnDlc4KAXFA5xe6DIOdF3jO594yUe6wZhD8ouTdp6M0lTvcz4M53/d6eH5zZn4AC4KYexu3R+YHsrAwoxdgfjAL886ikkK8MIsKORJoFMFWg3byzsEl9eKSQi4qXBkFOrdHFwa7seOY5Nl5weStU+kHLS/8ory5PBTllfmVJQuCVxjAwoAVxyPzwmusPSaALMoz88LMnRASF2irVq1SAAw5UgQbvbjnvLgxozDejs7q22khF+XNhYUtvQkocWHnBZ4f9KLAFwTALN5bGgXVx/Sr6OGFnffzuADzvu/Ayymd5vcQtfd1mFfmvB8VZqR3RhFsVO6QixuuTAM6P4/Oz6vzZl4GAc8dyvRCLwx8XvhFeXQmYecHMa9H5reNu8C0twajF1Duz70eWBDAvJ5YEMSCPLIwkAV5Zc7zZ4QZRbBRuUDOAV3UnFwS0DkVThzQAc8tP+IHuyTAi4Ken7cXBMAgEAZtk+WiBxUGduQ8Fxb3u16ouQDsW67KD2B+c2NuT8wNMQdk7lqOcUEW5ZWN9UGGGSmCjTLXrt45OWDHGlZ+oPPz6LywczItg2Dn9eziAs8PenHgN2Z8fRe09MrrDeYpP68qaDv3KgteaAWBy+t9JQGY2xNz5sfcEBtr28iCxHFB5vLKCDOKYKN6A7oory7Ms4sCntvDc0PPD3x+8PNCzg+CwMRVnP0+7wbY/N53F6IO+q4fyNzQcoMpDrySAMwNMb+wojslH3gutEiQUQQbVah2Two7N/DcSSl+wHN7eG7ojRneCdv6gc8LvyAABoEwKfiyKg64/EDl52k58q5f5gcuL7ySACyuJ+YHMYChRYpgo0oIOwd4frALAp7Xw/ODXhT4/Lw+LwT9QBgGRa9mzZrl+34QOP2A4sgLJK+CFth0r6MXtG9nzssPWkHgigMvP4ARYhTBRtUeeEEenhd6UeALgp/LmE/6zA96UVDshRwQuT2qMFABkxM2wqDlBVdSeIUAjBCjCDaqvn0nCHph4IuCXxgEo0AYpI0bNwoAuD1FE1qzZg0AhMIoLqSCYOUFFjB53iuO5wVwLowi2CjKOPj84AcgEIBBIIyCoo+xnzAvaFLOis9O0kXEefjCJAxUcbwtH2gRXBTBRlG9BiCASRD0g6EbiHGgWCTNmTNHAcANqCBQhQCL0KIogo2qQ9+NgmO3dckll4zDxwdMBBRFURRFURQVrv8PeXmddIJRIqMAAAAldEVYdGRhdGU6Y3JlYXRlADIwMjQtMDctMThUMDc6NDI6NTgrMDA6MDBc5s9RAAAAJXRFWHRkYXRlOm1vZGlmeQAyMDI0LTA3LTE4VDA3OjQyOjU4KzAwOjAwLbt37QAAAABJRU5ErkJggg==;" vertex="1" parent="1">
          <mxGeometry x="-160" y="550" width="96.07" height="105.5" as="geometry" />
        </mxCell>
        <mxCell id="kmKOHBo_5ijxBkN7VlWp-8" value="" style="rounded=0;orthogonalLoop=1;jettySize=auto;html=1;dashed=1;dashPattern=8 8;fillColor=#d5e8d4;strokeColor=#82b366;entryX=0.863;entryY=1.042;entryDx=0;entryDy=0;entryPerimeter=0;" edge="1" parent="1" source="GJdVX7ViqiDl456XCQRg-6" target="GJdVX7ViqiDl456XCQRg-8">
          <mxGeometry relative="1" as="geometry">
            <mxPoint x="403" y="580" as="sourcePoint" />
            <mxPoint x="228" y="440" as="targetPoint" />
          </mxGeometry>
        </mxCell>
        <mxCell id="kmKOHBo_5ijxBkN7VlWp-9" value="" style="rounded=0;orthogonalLoop=1;jettySize=auto;html=1;entryX=1;entryY=1;entryDx=0;entryDy=0;" edge="1" parent="1" source="GJdVX7ViqiDl456XCQRg-2" target="GJdVX7ViqiDl456XCQRg-5">
          <mxGeometry relative="1" as="geometry">
            <mxPoint x="403" y="690" as="sourcePoint" />
            <mxPoint x="341" y="640" as="targetPoint" />
          </mxGeometry>
        </mxCell>
        <mxCell id="D4bfI-xI0zdicXx17f72-11" value="" style="rounded=0;whiteSpace=wrap;html=1;fillColor=none;strokeColor=#82b366;" parent="1" vertex="1">
          <mxGeometry x="-150" y="665" width="1080" height="110" as="geometry" />
        </mxCell>
      </root>
    </mxGraphModel>
  </diagram>
</mxfile>
